<svg xmlns="http://www.w3.org/2000/svg" viewBox="0 0 272.21 62.05"><defs><style>.cls-1,.cls-2,.cls-3{fill:#FFFFFF;}</style></defs><path class="cls-1" d="M24.72,32.14c-.74.23-1.46.47-2.17.74A35,35,0,0,1,34.75.13V4a32.1,32.1,0,0,0-9.54,27.08Zm32.4,27.15A32,32,0,0,1,36.91,52.1c-.75-.61-1.47-1.26-2.16-1.93a32.27,32.27,0,0,1-8.42-13.8l-1.72,3.81a35.27,35.27,0,0,0,8,11.92c.7.68,1.42,1.34,2.17,2a34.88,34.88,0,0,0,22.37,8.12A34.38,34.38,0,0,0,69.36,60L66,58a31.85,31.85,0,0,1-8.87,1.26" transform="translate(-0.13 -0.13)"/><path class="cls-2" d="M32.58,52.1c.7.68,1.42,1.34,2.17,2a34.9,34.9,0,0,1-22.37,8.12A34.4,34.4,0,0,1,.13,60L3.5,58A32,32,0,0,0,32.58,52.1m14.85-25A35.18,35.18,0,0,0,34.75.13V4a32,32,0,0,1,9.78,23.14,31,31,0,0,1-.19,3.49,31.47,31.47,0,0,1-2.14,8.46,32.36,32.36,0,0,1-7.45,11.09c.69.67,1.41,1.32,2.16,1.93a35.43,35.43,0,0,0,6.9-9.53,34.76,34.76,0,0,0,3.13-9.65,35.62,35.62,0,0,0,.49-5.79" transform="translate(-0.13 -0.13)"/><path class="cls-3" d="M69.36,60,66,58A32.35,32.35,0,0,0,46.85,36l4.67,10.08c2.12,4.53,3.38,5.59,5.55,5.93.24.05.24,1.35,0,1.4H43.91c-.25,0-.25-1.35,0-1.4,2.55-.29,3.47-1.69,1.88-5.16l-2-4.28a34.76,34.76,0,0,0,3.13-9.65A35.25,35.25,0,0,1,69.36,60m-25-29.34a31.47,31.47,0,0,1-2.14,8.46L39.86,34a31.84,31.84,0,0,0-5.11-.43,30.24,30.24,0,0,0-7.57.92l-.85,1.86-1.72,3.81-2.26,5c-2.26,5-1.15,6.46,1.45,6.94.24.1.19,1.26-.05,1.31H13.05c-.24,0-.29-1.21-.05-1.31,1.88-.67,3.33-1.73,6-7.42L23,35.81A32.45,32.45,0,0,0,3.5,58L.13,60A35.3,35.3,0,0,1,22.55,32.88c.71-.26,1.43-.52,2.17-.74l.49-1.07,8.91-19.46a2.36,2.36,0,0,1,1.44,0Zm-5.91.28L33.57,20.39l-4.9,10.84a35.8,35.8,0,0,1,6.08-.53,34.33,34.33,0,0,1,3.68.2" transform="translate(-0.13 -0.13)"/><path class="cls-3" d="M107.62,41,98.9,17H95.3L87.06,38.25c-1.51,3.85-2.62,5.28-5.28,5.94V45.3h9.63V44.19c-3.57-.53-4.1-1.6-2.63-5.53L90.18,35h9l2.13,6.19c.73,2,0,2.82-3.77,3V45.3H112V44.19C109,43.7,108.4,43.08,107.62,41Zm-17-7.33,4-10.81H95L98.7,33.66Z" transform="translate(-0.13 -0.13)"/><path class="cls-3" d="M122.57,33.13c-2.83-.7-4.46-1.39-4.46-3.07a2.71,2.71,0,0,1,3-2.75c2.25,0,3.85,1.68,5.89,4.8h1.15V26H127l-1,1.27A9.26,9.26,0,0,0,121.38,26c-4.5,0-7.53,2.5-7.53,6.31,0,3,1.72,4.34,6,5.57,3.93,1.15,5.2,2,5.2,3.77,0,1.52-1.07,2.62-3.15,2.62-2.5,0-4.76-1.8-7-5.49h-1.14v6.8h1.1l1.23-1.39a13.47,13.47,0,0,0,5.41,1.39c4.63,0,7.66-2.82,7.66-6.51C129.21,35.75,126.91,34.24,122.57,33.13Z" transform="translate(-0.13 -0.13)"/><path class="cls-3" d="M143.5,43.49c-4.06,0-5.86-3.52-5.86-7.94,0-5.37,1.76-8.36,4.47-8.36a3.18,3.18,0,0,1,2.78,1.35A3.09,3.09,0,0,0,143.54,31c0,1.52,1,2.75,3.07,2.75a2.77,2.77,0,0,0,2.83-3.08c0-2.05-2.05-4.71-7.5-4.71-5.77,0-10.07,3.89-10.07,10.16,0,5.86,3.64,9.54,9.62,9.54A9.28,9.28,0,0,0,149.81,41l-.78-.62A7,7,0,0,1,143.5,43.49Z" transform="translate(-0.13 -0.13)"/><path class="cls-3" d="M161.64,26c-5.57,0-9.67,3.89-9.67,10.12,0,6,3.69,9.58,9.67,9.58a9.35,9.35,0,0,0,8.4-4.83l-.82-.61c-1.56,2.13-3.28,3.35-5.57,3.35-3.93,0-5.94-2.94-5.94-7.61v-.5H170C170.32,30.1,167.41,26,161.64,26Zm2.83,8.28-6.72,0c.2-4.55,1.39-7,3.6-7C163.89,27.23,164.92,30.14,164.47,34.24Z" transform="translate(-0.13 -0.13)"/><path class="cls-3" d="M192,42.8V32.11c0-3.85-1.6-5.94-5-5.94a10,10,0,0,0-7.17,3.72v-3.6l-8.19.37v1c2.34,0,2.83.78,2.83,2V42.8c0,1.06-.49,1.43-2.83,1.47v1h10.49v-1c-1.6,0-2.21-.41-2.21-1.47V31a5.2,5.2,0,0,1,3.76-1.92c2,0,2.87,1.23,2.87,3.72v10c0,1.06-.61,1.43-2.25,1.47v1h10.52v-1C192.48,44.23,192,43.86,192,42.8Z" transform="translate(-0.13 -0.13)"/><path class="cls-3" d="M206.07,33.13c-2.82-.7-4.46-1.39-4.46-3.07a2.71,2.71,0,0,1,2.95-2.75c2.25,0,3.85,1.68,5.9,4.8h1.14V26h-1.06l-1,1.27A9.29,9.29,0,0,0,204.89,26c-4.51,0-7.54,2.5-7.54,6.31,0,3,1.72,4.34,6,5.57,3.93,1.15,5.2,2,5.2,3.77,0,1.52-1.06,2.62-3.15,2.62-2.5,0-4.75-1.8-7-5.49h-1.15v6.8h1.11l1.22-1.39a13.47,13.47,0,0,0,5.41,1.39c4.63,0,7.66-2.82,7.66-6.51C212.71,35.75,210.42,34.24,206.07,33.13Z" transform="translate(-0.13 -0.13)"/><path class="cls-3" d="M223.52,42.8V26.29l-8.4.37v1c2.34,0,2.95.78,2.95,2V42.8c0,1.06-.61,1.43-2.95,1.47v1h11.23v-1C224,44.23,223.52,43.86,223.52,42.8Z" transform="translate(-0.13 -0.13)"/><path class="cls-3" d="M237.44,26c-6,0-9.91,3.89-9.91,9.91s3.69,9.79,9.91,9.79c5.9,0,9.87-3.89,9.87-9.95S243.55,26,237.44,26Zm.17,18.43c-3,0-4.26-2.82-4.26-8.6s1-8.56,3.89-8.56,4.22,2.79,4.22,8.56S240.43,44.39,237.61,44.39Z" transform="translate(-0.13 -0.13)"/><path class="cls-3" d="M269.51,42.8V32.11c0-3.85-1.6-5.94-5-5.94a10,10,0,0,0-7.17,3.72v-3.6l-8.19.37v1c2.33,0,2.82.78,2.82,2V42.8c0,1.06-.49,1.43-2.82,1.47v1h10.48v-1c-1.6,0-2.21-.41-2.21-1.47V31a5.22,5.22,0,0,1,3.77-1.92c2.05,0,2.86,1.23,2.86,3.72v10c0,1.06-.61,1.43-2.25,1.47v1h10.53v-1C270,44.23,269.51,43.86,269.51,42.8Z" transform="translate(-0.13 -0.13)"/><path class="cls-3" d="M220.7,23.05a3.26,3.26,0,1,0-3.26-3.25A3.24,3.24,0,0,0,220.7,23.05Z" transform="translate(-0.13 -0.13)"/></svg>