<svg xmlns="http://www.w3.org/2000/svg" width="216.375" height="69.544" viewBox="0 0 57.249 18.4"><path d="M56.934 185.504c-5.68-1.306-13.636-2.026-22.402-2.026-12.033 0-19.197.447-24.73 1.544a.124.124 0 0 0-.097.146.124.124 0 0 0 .144.1c4.53-.816 12.424-1.284 21.656-1.284q.768 0 1.531.005c8.752.05 16.165.77 21.438 2.082 4.595 1.143 7.23 2.685 7.23 4.23 0 1.17-.62 2.4-5.116 3.484-4.786 1.152-13.3 2.024-26.796 2.743a.125.125 0 0 0 .007.25l6.783-.012c10.284-.454 17.546-1.216 22.199-2.33 4.387-1.05 6.52-2.445 6.52-4.265 0-1.768-2.971-3.425-8.367-4.666" style="fill:#75bc1e;fill-opacity:1;fill-rule:nonzero;stroke:none;stroke-width:.35277778" transform="translate(-9.438 -183.214)"/><path d="M13.343 188.872c.038-.165.11-.468-.13-.468-.305 0-.362.191-.614 1.271-.26 1.112-.269 1.272.019 1.272.187 0 .303-.17.413-.643l.07-.294h1.134l-.056.24c-.207.889-.719 1.399-1.743 1.399-1.504 0-1.326-.76-1.043-1.974.276-1.176.462-1.974 1.966-1.974 1.247 0 1.25.612 1.112 1.203l-.065.277H13.27zm2.424 2.107c.205 0 .293-.176.45-.846s.15-.846-.054-.846c-.205 0-.293.176-.45.846-.156.67-.15.846.054.846m1.585-.846c-.19.814-.49 1.517-1.742 1.517s-1.222-.703-1.032-1.517c.19-.809.488-1.511 1.74-1.511s1.223.702 1.034 1.511m2.073-.463c.05-.218-.01-.282-.157-.282-.152 0-.255.117-.294.282l-.446 1.905h-1.135l.673-2.879h1.1l-.077.33h.012c.236-.282.551-.404.931-.404.404 0 .726.202.603.729l-.52 2.224h-1.136zm2.272.979c-.017.122-.032.213-.007.282.025.07.085.112.213.112.2 0 .274-.17.287-.224.032-.138.007-.18-.372-.313-.677-.235-.968-.389-.845-.916.136-.58.59-.968 1.467-.968 1.265 0 1.117.628 1.055.894h-.96c.018-.075.026-.16.002-.208-.028-.053-.086-.08-.21-.08-.116 0-.248.038-.285.198-.032.138.107.19.74.41.293.1.647.238.504.85-.167.713-.822.964-1.524.964-.826 0-1.23-.198-1.06-1zm3.463.596h-.012c-.236.282-.551.404-.932.404-.403 0-.725-.202-.601-.729l.52-2.224h1.135l-.445 1.905c-.051.218.01.282.156.282.152 0 .256-.117.294-.282l.446-1.905h1.135l-.673 2.879h-1.1zm5.113-1.575c.051-.218-.01-.282-.156-.282-.152 0-.256.117-.294.282l-.446 1.905h-1.135l.446-1.905c.05-.218-.01-.282-.157-.282-.152 0-.256.117-.294.282l-.446 1.905h-1.135l.673-2.879h1.1l-.077.33h.012c.236-.282.551-.404.932-.404.304 0 .563.117.66.404.23-.282.545-.404.925-.404.404 0 .726.202.602.729l-.52 2.224h-1.135zm3.165-.08c.066-.282.014-.361-.168-.361-.163 0-.258.079-.324.361l-.04.17h.492zm-.747 1.091c-.036.154-.073.362.161.362.222 0 .29-.187.358-.48h1.03c-.092.395-.273.666-.535.836s-.603.25-.989.25c-1.253 0-1.223-.702-1.032-1.516.189-.809.488-1.511 1.74-1.511 1.294 0 1.133.734.923 1.633l-.011.048h-1.557Zm2.389-1.985h1.1l-.099.426h.012c.176-.277.48-.5.79-.5.123 0 .155.01.19.016l-.221.941-.137-.016c-.051-.005-.098-.005-.215-.005-.392 0-.53.186-.609.527l-.348 1.49h-1.136Zm2.818 1.953c-.017.122-.032.213-.007.282.025.07.085.112.213.112.2 0 .274-.17.287-.224.032-.138.007-.18-.372-.313-.677-.235-.968-.389-.845-.916.136-.58.59-.968 1.467-.968 1.265 0 1.118.628 1.056.894h-.96c.017-.075.025-.16.001-.208-.028-.053-.086-.08-.21-.08-.116 0-.248.038-.285.198-.032.138.107.19.74.41.293.1.647.238.504.85-.167.713-.822.964-1.524.964-.826 0-1.23-.198-1.06-1zm3.682-2.873h2.516l-.201.862h-1.347l-.136.585h1.258l-.194.83h-1.258l-.155.66h1.399l-.202.862h-2.569zm4.154 1.894c.051-.218-.01-.282-.156-.282-.152 0-.256.117-.294.282l-.446 1.905h-1.135l.673-2.879h1.1l-.077.33h.012c.236-.282.551-.404.931-.404.405 0 .726.202.602.729l-.52 2.224H45.29Zm3.158-.08c.066-.282.015-.361-.167-.361-.164 0-.258.079-.324.361l-.04.17h.491zm-.746 1.091c-.036.154-.073.362.16.362.223 0 .29-.187.358-.48h1.03c-.092.395-.272.666-.534.836s-.603.25-.99.25c-1.252 0-1.222-.702-1.032-1.516.19-.809.489-1.511 1.741-1.511 1.294 0 1.133.734.923 1.633l-.011.048h-1.557zm2.386-1.985h1.1l-.1.426h.012c.176-.277.48-.5.79-.5.123 0 .156.01.19.016l-.221.941-.136-.016c-.052-.005-.099-.005-.216-.005-.392 0-.53.186-.609.527l-.348 1.49h-1.136zm3.403.692c-.222 0-.306.207-.432.745-.093.4-.108.612.109.612.228 0 .313-.213.406-.612.126-.538.14-.745-.083-.745m.454-.692h1.083l-.645 2.762c-.196.835-.82 1.096-1.65 1.096-1.188 0-1.144-.49-1.093-.83h1.03c-.018.074-.007.128.015.16.035.047.09.063.173.063.192 0 .29-.069.336-.266l.134-.57h-.012c-.206.283-.496.368-.806.368-.749 0-.73-.729-.574-1.4.152-.649.406-1.457 1.324-1.457.358 0 .535.144.59.43h.012zm1.407 0h1.171l-.121 1.745h.011l.666-1.745h1.136l-1.481 2.852c-.36.686-.565.963-1.42.963a2.5 2.5 0 0 1-.527-.048l.157-.67q.145.015.295.016.141 0 .224-.08a.3.3 0 0 0 .094-.154zm-12.69 11.269c-.206.721-.652 1.384-1.527 1.384-1.14 0-1.063-1.02-.848-1.983.215-.962.628-1.983 1.733-1.983.82 0 1.064.439.92 1.187h-.517c.086-.433.022-.802-.489-.802-.684 0-.934.716-1.13 1.598-.198.882-.268 1.598.416 1.598.601 0 .804-.534.925-.999zm1.98-.123c.139-.62.163-1.154-.342-1.154-.477 0-.698.534-.836 1.154-.139.62-.163 1.155.32 1.155.5 0 .72-.535.858-1.155m-.252-1.507c.87 0 .926.7.746 1.507s-.555 1.508-1.42 1.508c-.87 0-.926-.701-.746-1.508s.555-1.507 1.42-1.507m2.862 2.94h-.449l.076-.337h-.012c-.182.262-.53.411-.821.411-.792 0-.664-.572-.588-.908l.453-2.031h.472l-.442 1.978c-.05.218-.112.577.314.577.252 0 .631-.16.724-.577l.442-1.978h.471zm1.185-2.865h.449l-.075.337h.011c.182-.263.53-.412.822-.412.791 0 .663.572.588.909l-.454 2.03h-.471l.442-1.977c.049-.22.112-.578-.315-.578-.252 0-.63.161-.723.578l-.442 1.978h-.472zm2.909-.834h.471l-.186.834h.522l-.079.353h-.522l-.41 1.838c-.052.23-.01.32.237.32.1 0 .16-.01.21-.015l-.081.368c-.065.011-.193.033-.39.033-.487 0-.562-.193-.479-.567l.442-1.977h-.438l.079-.353h.438zm3.174 2.266c.139-.62.162-1.154-.342-1.154-.477 0-.698.534-.836 1.154-.139.62-.163 1.155.32 1.155.5 0 .72-.535.858-1.155m-.252-1.507c.87 0 .926.7.746 1.507s-.556 1.508-1.42 1.508c-.87 0-.926-.701-.746-1.508s.555-1.507 1.42-1.507m1.521.075h.449l-.075.337h.011c.182-.263.53-.412.822-.412.79 0 .663.572.588.909l-.454 2.03h-.471l.442-1.977c.048-.22.112-.578-.315-.578-.252 0-.63.161-.723.578l-.443 1.978h-.47zm3.665-.952h.493l-.599 2.683c-.125.562.007.824.496.824.527 0 .749-.289.868-.824l.6-2.683h.493l-.6 2.683c-.163.733-.662 1.208-1.448 1.208-.802 0-1.078-.422-.903-1.208zm3.815 1.791c.081-.363.024-.561-.318-.561-.152 0-.497.037-.587.438-.075.337.282.4.625.518.34.118.682.24.555.807-.134.604-.61.898-1.171.898-1.021 0-.872-.721-.806-1.015h.471c-.077.347-.047.663.414.663.151 0 .515-.07.606-.476.085-.385-.267-.465-.606-.583s-.691-.219-.559-.812c.12-.534.614-.791 1.136-.791.876 0 .78.577.711.914zm1.749-.991c.15 0 .284-.007.284-.17 0-.144-.12-.162-.236-.162h-.227v.332zm-.344-.482h.422c.241 0 .372.103.372.319 0 .193-.128.284-.294.302l.311.47h-.165l-.302-.458h-.179v.458h-.165zm1.138.54a.773.773 0 0 0-.767-.782.774.774 0 0 0-.767.782c0 .433.343.782.767.782.426 0 .767-.35.767-.782m-.767-.933a.932.932 0 1 1 .001 1.865.932.932 0 0 1 0-1.865" style="fill:#005db9;fill-opacity:1;fill-rule:nonzero;stroke:none;stroke-width:.35277778" transform="translate(-9.438 -183.214)"/></svg>