<svg xmlns="http://www.w3.org/2000/svg" width="131" height="43" fill="none" viewBox="0 0 131 43"><path fill="#002855" d="M47.262 10.696v-.04c0-4.026 3.034-7.323 7.382-7.323 2.67 0 4.268.89 5.583 2.185l-1.982 2.285c-1.092-.99-2.205-1.597-3.62-1.597-2.388 0-4.107 1.982-4.107 4.409v.04c0 2.428 1.679 4.45 4.106 4.45 1.618 0 2.61-.647 3.722-1.658l1.982 2.002c-1.456 1.558-3.074 2.528-5.805 2.528-4.167 0-7.261-3.216-7.261-7.281m13.612 1.679v-.04c0-3.116 2.508-5.644 5.886-5.644s5.846 2.488 5.846 5.603v.04c0 3.115-2.508 5.643-5.886 5.643s-5.846-2.487-5.846-5.602m8.698 0v-.04c0-1.599-1.153-2.994-2.852-2.994-1.7 0-2.812 1.355-2.812 2.953v.04c0 1.598 1.153 2.994 2.852 2.994 1.7 0 2.812-1.355 2.812-2.953m4.591-5.482h3.075v2.185c.627-1.497 1.638-2.468 3.458-2.387v3.216h-.162c-2.042 0-3.297 1.234-3.297 3.823v4.005h-3.074zm7.1 5.482v-.04c0-3.095 2.204-5.644 5.36-5.644 3.62 0 5.279 2.811 5.279 5.886 0 .243-.02.526-.04.809h-7.545c.303 1.396 1.274 2.124 2.65 2.124 1.031 0 1.78-.324 2.629-1.113l1.76 1.558c-1.012 1.254-2.468 2.022-4.43 2.022-3.256 0-5.663-2.285-5.663-5.602m7.645-.91c-.182-1.376-.99-2.306-2.285-2.306s-2.104.91-2.347 2.305zm3.277-4.572H95.3l1.74 6.574 2.042-6.614h2.65l2.063 6.634 1.78-6.594h3.054l-3.378 10.923h-2.771l-2.083-6.655-2.124 6.655h-2.75zm16.667 5.482v-.04c0-3.095 2.205-5.644 5.36-5.644 3.62 0 5.279 2.811 5.279 5.886 0 .243-.02.526-.04.809h-7.545c.303 1.396 1.274 2.124 2.65 2.124 1.031 0 1.78-.324 2.629-1.113l1.76 1.558c-1.011 1.254-2.468 2.022-4.43 2.022-3.256 0-5.663-2.285-5.663-5.602m7.645-.91c-.182-1.376-.991-2.306-2.285-2.306s-2.104.91-2.346 2.305zm4.612-8.495h3.075v14.765h-3.075zm5.805 0h3.075v14.765h-3.075zM48.455 25.36h3.115v5.603h5.744V25.36h3.115v14.16h-3.115v-5.684H51.57v5.684h-3.115zm13.572 8.799v-.04c0-3.095 2.205-5.644 5.36-5.644 3.62 0 5.28 2.812 5.28 5.886 0 .243-.02.526-.041.81H65.08c.304 1.395 1.275 2.123 2.65 2.123 1.032 0 1.78-.324 2.63-1.112l1.76 1.557c-1.012 1.254-2.468 2.023-4.43 2.023-3.257 0-5.664-2.286-5.664-5.603m7.646-.91c-.182-1.376-.991-2.306-2.286-2.306s-2.103.91-2.346 2.306zm4.026 3.155v-.04c0-2.367 1.8-3.46 4.369-3.46a7.7 7.7 0 0 1 2.65.446v-.182c0-1.275-.79-1.982-2.326-1.982-1.174 0-2.003.222-2.994.586l-.769-2.346c1.194-.526 2.367-.87 4.207-.87 1.68 0 2.893.445 3.662 1.214.808.809 1.173 2.002 1.173 3.458v6.29h-2.974v-1.172c-.748.829-1.78 1.375-3.276 1.375-2.043 0-3.722-1.173-3.722-3.317m7.059-.708v-.546c-.526-.243-1.214-.405-1.962-.405-1.315 0-2.124.526-2.124 1.497v.04c0 .83.688 1.315 1.679 1.315 1.436 0 2.407-.788 2.407-1.901m4.996-10.943h3.074V39.52h-3.074zm5.866 11.691v-5.137h-1.295v-2.63h1.295v-2.77h3.074v2.77h2.549v2.63h-2.549v4.632c0 .708.303 1.051.991 1.051.567 0 1.072-.141 1.517-.384v2.468c-.647.384-1.395.627-2.427.627-1.881 0-3.155-.748-3.155-3.257M98.9 24.753h3.075v5.462c.708-.91 1.618-1.74 3.175-1.74 2.326 0 3.682 1.537 3.682 4.025v7.019h-3.075V33.47c0-1.456-.688-2.205-1.861-2.205s-1.921.749-1.921 2.205v6.048H98.9z"/><path fill="#67f48c" d="M38.39 11.691c-4.118-9.26-16.371-13.103-25.518-9.11C8.01 4.535 3.434 8.847 1.578 14.385c-.037.11.008.122.068.024 5.919-9.874 19.79-9.939 25.672-1.391 4.927 7.018 1.788 16.088-6.258 19.134 6.853 2.953 14.79-.983 17.496-7.666 1.8-3.94 1.727-8.907-.162-12.795z"/><path fill="#0ed7e5" d="M2.48 30.684c4.118 9.26 16.371 13.103 25.518 9.11 4.862-1.954 9.437-6.266 11.294-11.808.037-.11-.008-.122-.069-.025-5.918 9.875-19.79 9.94-25.671 1.392-4.927-7.019-1.788-16.088 6.258-19.134-6.853-2.954-14.79.982-17.496 7.665-1.8 3.94-1.727 8.908.162 12.796z"/><path fill="#002855" d="M109.378 24.944h-.716v-.24h1.674v.24h-.716v1.937h-.246v-1.937zm1.456-.24h.263l.85 1.295.849-1.294h.255v2.18h-.247v-1.74l-.841 1.259h-.037l-.841-1.258v1.74h-.247v-2.181z"/></svg>