<svg xmlns="http://www.w3.org/2000/svg" width="144.318" height="42.059" viewBox="0 0 144.318 42.059"><path fill="#292526" d="M46.86 25.419q0-.412-.178-.75a1.54 1.54 0 0 0-.564-.578 2.4 2.4 0 0 0-.797-.314 4 4 0 0 0-.794-.089h-.166l-.006.832-.001.527.002.653.005 1.422h.163q.412 0 .829-.098.417-.096.703-.268.361-.217.583-.549.22-.33.221-.788m.541.003q0 .56-.275.983a2.14 2.14 0 0 1-.714.681 3.2 3.2 0 0 1-.851.343 4.3 4.3 0 0 1-1.055.118 9 9 0 0 1-.435-.009l-.235-.006.007-.733q.008-.717.008-1.358l-.002-.874q-.001-.533-.013-1.297l.291-.004.278-.004q.658 0 1.169.118.51.118.911.372.465.296.69.711.226.416.226.959m3.903 2.111-.423-.004a68 68 0 0 0-1.716 0l-.568.004q.006-.185.011-.8c.005-.615.005-.833.005-1.27q0-.36-.004-.952a134 134 0 0 0-.012-1.225l.565.003q.339.004.699.004a89 89 0 0 0 1.404-.007v.44l-.399-.003a78 78 0 0 0-.914-.004h-.829q0 .361-.004.72-.004.36-.004.68h.685q.558 0 .997-.004l.468-.004v.441l-.523-.004q-.498-.004-.91-.004h-.717a120 120 0 0 0 .008 1.555 43 43 0 0 0 1.027.007 87 87 0 0 0 1.154-.007zm4.167-3.807-.427-.003q-.375-.004-1.136-.004l-.011.989q-.004.337-.004.918a110 110 0 0 0 .015 1.907h-.526q.007-.191.011-.779.005-.589.005-1.152v-.879q0-.326-.008-1.003a63 63 0 0 0-1.562.007v-.44l.797.003q.47.004 1 .004a155 155 0 0 0 1.846-.007zm4.063 3.548-.402.327a42 42 0 0 1-.496-.551q-.426-.479-1.313-1.493l.003-.028q.121-.031.322-.139.2-.106.337-.23.118-.107.205-.267a.9.9 0 0 0 .088-.426.7.7 0 0 0-.129-.421.74.74 0 0 0-.354-.26 1.4 1.4 0 0 0-.387-.084 6 6 0 0 0-.375-.014h-.264q-.01.605-.013 1.067l-.002.652q0 .436.006 1.185s.007.812.009.94h-.526q.004-.193.01-.74.006-.55.006-1.367v-.589q0-.429-.016-1.566l.318-.008q.286-.007.528-.007.277 0 .538.032.26.031.508.137.315.134.5.393.184.26.184.61 0 .451-.278.753-.278.3-.526.446v.017q.438.508.959 1.049.522.54.56.582m4.071-1.819a2.5 2.5 0 0 0-.139-.812 1.64 1.64 0 0 0-.422-.668 1.33 1.33 0 0 0-.959-.388 1.4 1.4 0 0 0-.533.103q-.247.103-.448.304-.255.253-.397.628a2.2 2.2 0 0 0-.141.781q0 .457.144.818.145.362.41.613.181.175.43.281.249.105.532.105t.531-.104q.246-.1.447-.297.239-.227.392-.582.153-.35.153-.782m.541-.051q0 .515-.176.946a2.1 2.1 0 0 1-.46.711 2 2 0 0 1-.668.453 2 2 0 0 1-.757.142q-.395 0-.744-.136a1.9 1.9 0 0 1-.63-.401 2.2 2.2 0 0 1-.498-.73 2.5 2.5 0 0 1-.189-.991q0-.49.149-.893.15-.402.449-.723.276-.3.658-.463t.805-.164q.43 0 .795.155.366.153.633.427.312.319.473.75a2.6 2.6 0 0 1 .16.917m1.683 2.129h-.526q.004-.192.01-.682a124 124 0 0 0 .003-2.359q-.003-.589-.013-1.222h.526l-.011 1.06q-.004.601-.004.983a142 142 0 0 0 .015 2.22m4.426-3.807-.427-.003q-.375-.004-1.136-.004l-.011.989q-.004.337-.004.918 0 .56.006 1.138c.006.578.006.642.009.769h-.526q.006-.191.011-.779t.005-1.152v-.879q0-.326-.008-1.003a63 63 0 0 0-1.562.007v-.44l.797.003q.468.004 1 .004a155 155 0 0 0 1.846-.007zm7.544 3.743-.516.101-.656-3.577-.007.002q-.125.259-.551 1.197a83 83 0 0 0-.831 1.884h-.439a148 148 0 0 0-1.377-3.082l-.002.01q-.02.082-.26 1.215a61 61 0 0 0-.458 2.344l-.487-.09q.318-1.37.596-2.716.276-1.346.303-1.46l.505-.073.45 1.024q.418.951.984 2.192h.02q.433-.974.917-2.073.482-1.102.502-1.143l.481.038q.009.07.264 1.396.254 1.325.562 2.811m3.731.064-.423-.004a68 68 0 0 0-1.717 0l-.567.004q.007-.185.011-.8.006-.614.006-1.27 0-.36-.004-.952-.003-.592-.013-1.225l.565.003q.34.004.699.004a89 89 0 0 0 1.404-.007v.44l-.398-.003a79 79 0 0 0-.914-.004h-.83q0 .361-.004.72-.004.36-.004.68h.686q.557 0 .997-.004l.468-.004v.441l-.523-.004a100 100 0 0 0-.91-.004h-.717q0 .604.002.96l.006.595.453.005q.267.002.574.002a88 88 0 0 0 1.153-.007zm4.167-3.807-.428-.003q-.374-.004-1.135-.004l-.012.989q-.004.337-.004.918 0 .56.006 1.138s.008.642.01.769h-.525q.006-.191.01-.779.006-.589.005-1.152v-.879q0-.326-.008-1.003a63 63 0 0 0-1.562.007v-.44l.797.003q.47.004 1 .004a155 155 0 0 0 1.846-.007zm4.065 3.548-.402.327a33 33 0 0 1-.497-.551q-.426-.479-1.313-1.493l.004-.028q.12-.031.321-.139.2-.106.337-.23.117-.107.205-.267a.9.9 0 0 0 .088-.426.7.7 0 0 0-.129-.421.74.74 0 0 0-.354-.26 1.4 1.4 0 0 0-.387-.084 6 6 0 0 0-.375-.014h-.264a78 78 0 0 0-.016 1.719q0 .436.006 1.185s.007.812.01.94h-.525l.008-.74q.007-.55.007-1.367v-.589q0-.429-.015-1.566l.317-.008q.285-.007.528-.007.276 0 .537.032.26.031.509.137.314.134.499.393.184.26.184.61 0 .451-.277.753-.278.3-.526.446v.017q.438.508.96 1.049zm4.069-1.819q0-.412-.138-.812a1.6 1.6 0 0 0-.424-.668 1.33 1.33 0 0 0-.959-.388q-.285 0-.532.103-.246.103-.448.304-.255.253-.396.628a2.2 2.2 0 0 0-.142.781q0 .457.146.818a1.7 1.7 0 0 0 .408.613q.182.175.431.281.249.105.532.105.282 0 .531-.104.246-.1.447-.297.238-.227.391-.582.153-.35.153-.782m.542-.051q0 .515-.177.946a2.1 2.1 0 0 1-.46.711 2 2 0 0 1-.668.453 2 2 0 0 1-.758.142q-.393 0-.743-.136a1.9 1.9 0 0 1-.63-.401 2.2 2.2 0 0 1-.497-.73 2.5 2.5 0 0 1-.19-.991q0-.49.15-.893a2.2 2.2 0 0 1 .447-.723q.278-.3.658-.463a2 2 0 0 1 .805-.164q.43 0 .797.155.365.153.633.427.311.319.473.75.16.43.16.917m4.789.52a.9.9 0 0 1-.277.665q-.279.277-.666.277c-.387 0-.479-.093-.662-.277a.9.9 0 0 1-.274-.665q.001-.386.281-.661c.28-.275.407-.275.661-.275q.388 0 .662.274a.9.9 0 0 1 .275.662m9.049-2.554a82 82 0 0 0-1 2.762l-.484 1.415h-.443q-.015-.06-.341-1.011a88 88 0 0 0-.86-2.369h-.007a85 85 0 0 0-.86 2.242l-.418 1.138h-.451a97 97 0 0 0-1.43-4.135l.519-.204q.013.045.373 1.12t.826 2.414l.006-.004q.49-1.232.854-2.259l.38-1.074h.493q.012.055.387 1.165.376 1.111.76 2.174l.004-.008a96 96 0 0 0 1.219-3.528zm1.531 4.163h-.525l.01-.682a124 124 0 0 0 .002-2.359q-.003-.589-.012-1.222h.525l-.011 1.06a141 141 0 0 0 .011 3.203m4.094 0-.402-.004a60 60 0 0 0-1.637 0l-.568.004a198 198 0 0 0 .016-2.215q0-.905-.006-1.381-.006-.474-.01-.666h.533l-.012.949a164 164 0 0 0 0 2.28q.005.56.004.592h.646q.567 0 .986-.004.42-.005.449-.004zm3.511 0-.401-.004a60 60 0 0 0-1.638 0l-.566.004.012-1.111q.004-.562.004-1.104a96 96 0 0 0-.016-2.047h.534q-.009.41-.013.949l-.004.882q0 .837.004 1.398.005.56.004.592h.646q.567 0 .986-.004.42-.005.447-.004zm4.138-2.078a2.5 2.5 0 0 0-.139-.812 1.6 1.6 0 0 0-.422-.668 1.33 1.33 0 0 0-.959-.388 1.4 1.4 0 0 0-.533.103q-.248.103-.448.304-.255.253-.397.628a2.2 2.2 0 0 0-.141.781q0 .457.145.818.145.362.409.613.182.175.431.281.248.105.533.105.282 0 .529-.104a1.4 1.4 0 0 0 .448-.297 1.7 1.7 0 0 0 .391-.582q.154-.35.153-.782m.542-.051q0 .515-.177.946a2.1 2.1 0 0 1-.459.711 2 2 0 0 1-.668.453 2 2 0 0 1-.758.142q-.395 0-.744-.136a1.9 1.9 0 0 1-.631-.401 2.1 2.1 0 0 1-.496-.73 2.5 2.5 0 0 1-.189-.991q0-.49.148-.893.15-.402.449-.723.276-.3.658-.463.381-.164.805-.164.43 0 .795.155.366.153.633.427.312.319.473.75.161.43.161.917m6.958-2.034a84 84 0 0 0-1 2.762l-.485 1.415h-.442q-.016-.06-.342-1.011a87 87 0 0 0-.859-2.369h-.006q-.47 1.174-.86 2.242l-.419 1.138h-.451a100 100 0 0 0-1.43-4.135l.519-.204q.012.045.373 1.12.36 1.075.825 2.414l.007-.004q.49-1.232.854-2.259t.379-1.074h.494q.012.055.387 1.165t.76 2.174l.003-.008a93 93 0 0 0 1.219-3.528zm5.917 3.904-.402.327a38 38 0 0 1-.495-.551q-.428-.479-1.313-1.493l.003-.028q.122-.031.32-.139.201-.106.338-.23.117-.107.205-.267a.9.9 0 0 0 .088-.426.7.7 0 0 0-.129-.421.74.74 0 0 0-.354-.26 1.4 1.4 0 0 0-.387-.084 6 6 0 0 0-.375-.014h-.264a80 80 0 0 0-.014 1.067l-.002.652q0 .436.006 1.185s.008.812.01.94h-.526l.01-.74q.006-.55.006-1.367v-.589q0-.429-.016-1.566l.317-.008q.287-.007.528-.007.278 0 .537.032.262.031.509.137.316.134.5.393.184.26.184.61 0 .451-.277.753-.278.3-.525.446v.017q.436.508.959 1.049.521.54.559.582m4.312-4.004q0 .612-.009 1.011c-.009.399-.008.5-.008.696q0 .363.004.619t.004.444q0 .37-.11.65a1.3 1.3 0 0 1-.332.492q-.223.21-.549.33a2.2 2.2 0 0 1-.75.119q-.428 0-.752-.117a1.6 1.6 0 0 1-.553-.332 1.34 1.34 0 0 1-.332-.492 1.8 1.8 0 0 1-.109-.65q-.001-.187.004-.444.004-.256.004-.619-.001-.295-.008-.696a46 46 0 0 1-.009-1.011h.526q-.004.08-.01.543t-.006 1.218q0 .229.004.475.004.244.004.502 0 .583.334.883.333.301.902.301.614 0 .922-.285.31-.286.31-.898 0-.258.003-.502.004-.246.004-.475a83 83 0 0 0-.016-1.76h.528m5.105-.002-.012 1.142-.004.926q0 .902.008 1.436l.008.568-.426.206a83 83 0 0 0-1.791-2.341l-.963-1.206-.008.003q0 .851.01 2.095l.014 1.434h-.495q.004-.08.011-.566.006-.487.006-1.354 0-.347-.004-.921-.003-.574-.013-1.216l.483-.229a349 349 0 0 0 2.698 3.387l.006-.003q0-.49-.012-1.646-.01-1.157-.011-1.716zM53.75 32.072q-.331.872-.616 1.709-.284.84-.298.875h-.272a51 51 0 0 0-.74-2.091h-.004q-.288.725-.529 1.388l-.257.703h-.278a60 60 0 0 0-.881-2.558l.317-.125q.007.028.229.692c.222.664.317.942.508 1.494l.006-.004a43 43 0 0 0 .526-1.397l.234-.664h.304q.008.033.237.718.23.684.466 1.34l.006.006a57 57 0 0 0 .749-2.185zm2.119.894-.243-.544-.008-.002q-.1.216-.239.53l-.231.515h.94zm1.066 1.571-.301.158-.126-.289q-.118-.27-.31-.692h-1.162l-.318.702-.124.279-.257-.143q.05-.102.418-.895.369-.795.765-1.67h.255q.39.875.768 1.695zm2.724-2.392-.386.488q-.37.467-.596.756-.005.354.001.744l.007.508h-.325q.003-.118.006-.515.003-.396.001-.713a51 51 0 0 0-.588-.765q-.35-.447-.379-.481l.26-.194.306.411q.28.378.566.75h.004q.275-.354.577-.747t.317-.414zm3.13-.126q-.004.307-.006.704l-.002.571q0 .556.004.885l.004.35-.26.127a52 52 0 0 0-1.106-1.447l-.595-.744-.004.002q0 .526.007 1.291.006.766.009.884h-.302l.005-.349.003-.834-.002-.565-.006-.749.294-.14.601.76q.565.717 1.066 1.33l.003-.002q0-.301-.007-1.015-.008-.714-.008-1.059zm2.977 2.622-.26-.004a34 34 0 0 0-1.055 0q-.205.004-.348.004.003-.114.005-.493c.002-.379.002-.515.002-.785l-.001-.587-.006-.757q.138 0 .347.004a30 30 0 0 0 1.038 0l.254-.004v.278l-.245-.005q-.225-.003-.56-.002h-.509q0 .22-.004.441a20 20 0 0 0-.004.416h.421q.343 0 .614-.004l.287-.004v.279l-.322-.004q-.306-.004-.559-.004h-.441l.002.592.006.367.277.006.353.002q.29 0 .487-.004l.221-.004zm4.29-.24-.01.101-.017.178h-.068q-.477 0-.847-.12c-.37-.12-.45-.196-.609-.351a1.16 1.16 0 0 1-.359-.885q0-.255.095-.467.096-.21.25-.367a1.56 1.56 0 0 1 .602-.36q.377-.134.808-.134h.088l.007.112.014.166h-.066q-.244 0-.505.054-.261.055-.45.162-.246.142-.378.361c-.132.219-.132.307-.132.477a1 1 0 0 0 .119.48.95.95 0 0 0 .377.364q.21.122.471.176.261.056.519.056h.037zm2.968-1.036q0-.256-.086-.5a1 1 0 0 0-.26-.414.8.8 0 0 0-.59-.239.9.9 0 0 0-.33.063.9.9 0 0 0-.275.188 1.1 1.1 0 0 0-.244.388 1.4 1.4 0 0 0-.087.482q0 .281.089.505a1.1 1.1 0 0 0 .252.378.86.86 0 0 0 .594.238.84.84 0 0 0 .601-.246q.148-.14.24-.359.096-.218.096-.484m.332-.032q0 .316-.108.582a1.26 1.26 0 0 1-.694.716 1.3 1.3 0 0 1-.465.087q-.243 0-.459-.083a1.2 1.2 0 0 1-.388-.248 1.3 1.3 0 0 1-.306-.449 1.5 1.5 0 0 1-.117-.608q0-.302.092-.549a1.3 1.3 0 0 1 .276-.445q.172-.185.406-.285.234-.101.496-.102a1.23 1.23 0 0 1 .879.359q.191.197.289.461.099.264.099.564m3.243-1.314q0 .376-.004.622c-.004.246-.004.306-.004.429v.653q0 .227-.067.401a.85.85 0 0 1-.204.303 1 1 0 0 1-.337.202 1.3 1.3 0 0 1-.462.073q-.26 0-.463-.072a1 1 0 0 1-.338-.203.8.8 0 0 1-.203-.303 1.1 1.1 0 0 1-.068-.401v-.653q0-.184-.004-.429l-.004-.622h.324l-.004.334q-.003.284-.004.749v.603q0 .357.207.543.205.185.557.185.38-.001.57-.176.19-.177.19-.552v-.603a53 53 0 0 0-.007-1.083zm3.541 0q-.004.307-.004.704l-.004.571a96 96 0 0 0 .008 1.235l-.258.127a58 58 0 0 0-1.107-1.447q-.515-.645-.596-.744l-.004.002q.001.526.008 1.291l.009.884h-.302l.004-.349q.004-.3.004-.834l-.002-.565q-.001-.353-.006-.749l.293-.14q.036.042.602.76c.566.718.732.921 1.066 1.33l.004-.002q-.001-.301-.008-1.015a88 88 0 0 1-.008-1.059zm3.125.272-.262-.004q-.232-.005-.697-.004-.006.404-.006.611-.002.208-.002.568a83 83 0 0 0 .008 1.179h-.326q.004-.118.006-.481l.002-.713v-1.164a35 35 0 0 0-.967.008v-.271q.203 0 .49.004a59 59 0 0 0 1.754-.004zm2.713-.146-.387.488-.596.756q-.004.354.001.744l.007.508h-.324q.003-.118.006-.515l.002-.713a97 97 0 0 0-.967-1.246l.258-.194q.026.033.307.411c.281.378.376.502.566.75h.004q.275-.354.576-.747.304-.393.318-.414zm3.387.821-.243-.544-.008-.002-.239.53-.231.515h.94zm1.068 1.571-.303.158-.125-.289q-.117-.27-.311-.692h-1.162l-.318.702-.123.279-.258-.143q.051-.102.42-.895.367-.795.764-1.67h.254q.392.875.769 1.695.375.821.393.855m1.207.104h-.325l.005-.419q.003-.302.003-.866l-.002-.585-.006-.752h.325l-.006.651-.002.605a116 116 0 0 0 .008 1.366m3.347-.163-.255.201a15 15 0 0 1-.306-.338l-.806-.918.002-.018q.074-.02.198-.084a1 1 0 0 0 .208-.143q.072-.067.126-.164c.054-.097.054-.152.054-.262q0-.151-.079-.26a.45.45 0 0 0-.218-.158q-.112-.044-.237-.053c-.125-.009-.16-.009-.23-.009h-.163l-.006.657-.001.402.003.729.004.579h-.324l.005-.456q.002-.337.002-.84v-.363q0-.263-.007-.963l.195-.004q.177-.004.325-.004.17 0 .33.02a1.2 1.2 0 0 1 .313.084q.193.082.308.241c.115.159.113.231.113.374a.65.65 0 0 1-.171.462 1.5 1.5 0 0 1-.323.274v.01q.27.312.594.645zm2.215-1.558a.6.6 0 0 0-.092-.345.6.6 0 0 0-.282-.223.8.8 0 0 0-.254-.064 3 3 0 0 0-.282-.013h-.072q.001.022-.004.294l-.004.43v.569h.079q.131 0 .279-.018a.7.7 0 0 0 .254-.064.63.63 0 0 0 .28-.218.57.57 0 0 0 .098-.348m.333-.003a.8.8 0 0 1-.185.518.9.9 0 0 1-.496.313 2 2 0 0 1-.29.053q-.157.015-.353.015l.008.828h-.324l.005-.437q.003-.317.003-.983l-.002-.519-.006-.684.166-.002h.132q.338 0 .575.043c.237.043.293.078.4.146q.178.112.272.291c.094.179.095.26.095.418m3.011.448a1.5 1.5 0 0 0-.084-.5 1.05 1.05 0 0 0-.261-.414.9.9 0 0 0-.265-.176.8.8 0 0 0-.326-.063.9.9 0 0 0-.329.063.9.9 0 0 0-.274.188 1.05 1.05 0 0 0-.244.388 1.3 1.3 0 0 0-.088.482q0 .281.09.505.088.223.252.378a.84.84 0 0 0 .592.238.84.84 0 0 0 .603-.246q.147-.14.24-.359.094-.218.094-.484m.334-.032q0 .316-.109.582a1.3 1.3 0 0 1-.283.437q-.194.193-.411.279a1 1 0 0 1-.466.087q-.242 0-.458-.083a1.2 1.2 0 0 1-.388-.248 1.3 1.3 0 0 1-.307-.449 1.6 1.6 0 0 1-.115-.608q0-.302.092-.549.091-.248.275-.445a1.15 1.15 0 0 1 .405-.285q.235-.101.495-.102.265 0 .49.096.224.094.389.263.192.197.291.461.1.264.1.564m3.137 1.145-.256.201-.304-.338q-.261-.295-.806-.918l.002-.018q.074-.02.197-.084.123-.067.209-.143.072-.067.125-.164a.5.5 0 0 0 .055-.262.42.42 0 0 0-.297-.418.8.8 0 0 0-.238-.053 3 3 0 0 0-.23-.009h-.162l-.008.657v.402a106 106 0 0 0 .008 1.308h-.325l.005-.456q.003-.337.003-.84v-.363q0-.263-.008-.963l.196-.004q.176-.004.324-.004.17 0 .332.02.159.02.313.084a.7.7 0 0 1 .307.241.63.63 0 0 1 .114.374q0 .279-.171.462a1.5 1.5 0 0 1-.324.274v.01q.27.312.594.645zm2.718-2.187-.262-.004q-.231-.005-.697-.004-.005.404-.006.611-.002.208-.002.568l.002.703.006.476h-.325q.003-.118.005-.481l.003-.713v-1.164a35 35 0 0 0-.967.008v-.271q.201 0 .491.004a58 58 0 0 0 1.752-.004zm3.381.675-.243-.544-.007-.002a86 86 0 0 0-.47 1.045h.941zm1.067 1.571-.301.158-.125-.289q-.12-.27-.312-.692h-1.161a72 72 0 0 0-.441.981l-.259-.143q.05-.102.419-.895.367-.795.766-1.67h.255q.39.875.767 1.695zm3.017-2.518q0 .376-.004.622l-.003.429v.653q0 .227-.068.401a.8.8 0 0 1-.204.303 1 1 0 0 1-.337.202 1.3 1.3 0 0 1-.462.073q-.263 0-.462-.072a1 1 0 0 1-.338-.203.8.8 0 0 1-.204-.303 1.1 1.1 0 0 1-.068-.401v-.653q.001-.184-.004-.429l-.004-.622h.325l-.005.334-.003.749v.603q0 .357.206.543.206.185.557.185.38-.001.571-.176.19-.177.19-.552v-.603q0-.464-.004-.76l-.005-.323zm3.102.272-.262-.004q-.231-.005-.697-.004l-.006.611a49 49 0 0 0 0 1.271l.006.476h-.326l.007-.481.002-.713v-1.164a35 35 0 0 0-.968.008v-.271q.203 0 .492.004a58 58 0 0 0 1.752-.004zm3.092 2.35h-.324l.005-.435q.003-.317.003-.787h-1.586q0 .545.003.824c.003.279.003.318.005.397h-.324l.004-.417q.004-.3.004-1.013 0-.215-.004-.525 0-.309-.004-.667h.324q0 .297-.004.584t-.004.545h1.586q0-.258-.004-.544-.004-.285-.004-.585h.324l-.006.684-.002.633q0 .575.004.882c.004.307.002.345.004.424m3.295-1.276q0-.256-.085-.5a1.05 1.05 0 0 0-.26-.414q-.12-.112-.265-.176c-.145-.064-.206-.063-.327-.063a.9.9 0 0 0-.328.063.9.9 0 0 0-.275.188q-.157.156-.244.388a1.1 1.1 0 0 0-.088.482q0 .281.09.505.088.223.252.378a.85.85 0 0 0 .592.238.84.84 0 0 0 .603-.246q.147-.14.24-.359.095-.218.095-.484m.333-.032q0 .316-.109.582a1.3 1.3 0 0 1-.693.716 1.3 1.3 0 0 1-.467.087q-.24 0-.457-.083a1.2 1.2 0 0 1-.388-.248 1.3 1.3 0 0 1-.308-.449 1.6 1.6 0 0 1-.115-.608q-.001-.302.092-.549.091-.248.275-.445.17-.185.406-.285.234-.101.494-.102.265 0 .49.096c.225.096.28.15.389.263q.194.197.291.461.1.264.1.564m3.137 1.145-.255.201q-.043-.045-.304-.338-.263-.295-.807-.918l.002-.018q.074-.02.197-.084a1 1 0 0 0 .209-.143q.072-.067.126-.164c.054-.097.054-.152.054-.262q0-.151-.078-.26a.47.47 0 0 0-.219-.158q-.113-.044-.238-.053c-.125-.009-.16-.009-.23-.009h-.162q-.006.373-.007.657l-.001.402a118 118 0 0 0 .008 1.308h-.324l.004-.456q.004-.337.004-.84v-.363q-.001-.263-.008-.963l.195-.004q.177-.004.325-.004.17 0 .331.02.159.02.313.084a.7.7 0 0 1 .307.241.63.63 0 0 1 .115.374.65.65 0 0 1-.172.462 1.5 1.5 0 0 1-.324.274v.01q.272.312.594.645c.322.333.33.342.345.359m1.235.163h-.325l.005-.419.003-.866-.002-.585-.006-.752h.325l-.006.651q-.003.37-.002.605a116 116 0 0 0 .008 1.366m3.127-2.35-.262-.004q-.232-.005-.697-.004l-.006.611q-.002.208-.002.568a83 83 0 0 0 .008 1.179h-.325q.003-.118.005-.481l.003-.713v-1.164a35 35 0 0 0-.967.008v-.271q.202 0 .491.004a58 58 0 0 0 1.752-.004zm2.713-.146-.386.488-.598.756a37 37 0 0 0 .008 1.252h-.324q.004-.118.007-.515.003-.396.001-.713a97 97 0 0 0-.967-1.246l.26-.194.306.411q.28.378.566.75h.004l.577-.747q.302-.393.316-.414zM53.642 7.727l5.82-5.152-4.535 6.562zm-6.154 1.54 5.82-5.153-4.535 6.563z"/><path fill="none" d="M.1 0h144.218v42.056H.1z"/><path fill="#13b5ea" d="M17.687 26.919C12.181 25.644 12.621 12.354 24.082 0 14.11 9.824 11.071 18.614 10.329 21.831c-2.5 10.834 5.463 13.005 16.064 7.024 6.185-3.49 15.056-11.44 20.563-17.394-4.763 4.912-20.002 17.605-29.269 15.458"/><path fill="#0069aa" d="M9.489 34.514c-6.712-2.983-6.543-13.08 2.834-24.839-4.465 4.316-9.34 12.764-10.558 16.213-5.958 16.863 3.679 20.779 21.194 10.607 10.218-5.934 21.796-16.077 30.148-26.671-7.01 8.012-32.48 29.64-43.618 24.69"/></svg>