<svg xmlns="http://www.w3.org/2000/svg" width="111" height="38" fill="none" viewBox="0 0 111 38"><path fill="#1e3575" d="M74.081 9.247H63.427V38h-13.83V9.247H38.92V.021h35.16zm36.623-.149V0H79.351v28.872a9.02 9.02 0 0 0 9.022 9.021h22.493v-9.14H94.772a2.113 2.113 0 0 1-2.11-2.11V22.89h17.318v-8.42H92.662V9.098zM23.414 37.97H0V.06h23.338c6.17 0 11.166 5 11.166 11.166V26.88c0 6.122-4.963 11.09-11.09 11.09m-1.696-11.984V11.882a2.91 2.91 0 0 0-2.908-2.907h-5.12v19.918h5.12c1.603 0 2.908-1.3 2.908-2.907"/></svg>