<?xml version="1.0" encoding="UTF-8" standalone="no"?>
<!-- Created with Inkscape (http://www.inkscape.org/) -->

<svg
   xmlns:dc="http://purl.org/dc/elements/1.1/"
   xmlns:cc="http://creativecommons.org/ns#"
   xmlns:rdf="http://www.w3.org/1999/02/22-rdf-syntax-ns#"
   xmlns:svg="http://www.w3.org/2000/svg"
   xmlns="http://www.w3.org/2000/svg"
   xmlns:sodipodi="http://sodipodi.sourceforge.net/DTD/sodipodi-0.dtd"
   xmlns:inkscape="http://www.inkscape.org/namespaces/inkscape"
   width="288.54968mm"
   height="41.976292mm"
   viewBox="0 0 288.54968 41.976292"
   version="1.1"
   id="svg6644"
   inkscape:version="0.92.4 (5da689c313, 2019-01-14)"
   sodipodi:docname="five below.svg">
  <defs
     id="defs6638" />
  <sodipodi:namedview
     id="base"
     pagecolor="#ffffff"
     bordercolor="#666666"
     borderopacity="1.0"
     inkscape:pageopacity="0.0"
     inkscape:pageshadow="2"
     inkscape:zoom="1.33603"
     inkscape:cx="543.40099"
     inkscape:cy="77.435501"
     inkscape:document-units="mm"
     inkscape:current-layer="layer1"
     showgrid="false"
     fit-margin-top="0"
     fit-margin-left="0"
     fit-margin-right="0"
     fit-margin-bottom="0"
     inkscape:window-width="1920"
     inkscape:window-height="1001"
     inkscape:window-x="-9"
     inkscape:window-y="-9"
     inkscape:window-maximized="1" />
  <metadata
     id="metadata6641">
    <rdf:RDF>
      <cc:Work
         rdf:about="">
        <dc:format>image/svg+xml</dc:format>
        <dc:type
           rdf:resource="http://purl.org/dc/dcmitype/StillImage" />
        <dc:title></dc:title>
      </cc:Work>
    </rdf:RDF>
  </metadata>
  <g
     inkscape:label="Layer 1"
     inkscape:groupmode="layer"
     id="layer1"
     transform="translate(11.48318,-150.77971)">
    <g
       transform="translate(-234.90677,-53.210184)"
       id="g7225">
      <path
         id="path6514"
         d="m 228.23683,244.74678 v -21.35002 h -4.31324 v -7.26069 h 4.3135 v -1.00701 c 0,-7.6917 4.0976,-10.63916 11.71734,-10.63916 0.43153,0 3.23532,0.2159 3.23532,0.2159 l 5.96662,0.50297 v 7.18873 l -4.52887,-0.3593 c 0,0 -1.07844,-0.0717 -1.43775,-0.0717 -2.51618,0 -3.09112,1.50918 -3.09112,3.23506 l 0.0717,0.93424 h 7.6917 v 7.2607 H 240.314 v 21.35002 m 12.00494,-28.89779 h 11.78983 v 28.89805 h -11.78983 z m 0,-10.49576 h 11.78983 v 7.6917 h -11.78983 z m 14.52165,0.57468 12.86748,38.81913 h 10.06449 l 12.50818,-38.81913 h -9.56099 l -6.03858,20.48827 -5.89465,-20.48827"
         inkscape:connector-curvature="0"
         style="fill:#065ef0;stroke-width:0.26458332" />
      <path
         transform="matrix(0.26458333,0,0,0.26458333,215.56302,203.07782)"
         style="fill:#065ef0"
         inkscape:connector-curvature="0"
         d="m 385.082,41.475 c 13.04,0 18.203,9.508 18.203,23.909 v 1.357 h -36.407 v -1.629 c 0,-16.03 7.879,-23.637 18.204,-23.637 M 384.538,7.783 c -47.82,0 -70.371,40.485 -70.371,77.708 0,38.309 23.096,74.717 72.816,74.717 38.581,0 60.59,-22.552 67.11,-51.895 l -47.548,-3.534 c -1.631,11.14 -7.337,17.934 -19.29,17.934 -14.944,0 -20.106,-10.053 -20.106,-23.365 v -4.076 h 86.944 V 86.848 C 454.094,49.354 435.346,7.783 384.538,7.783 Z"
         clip-path="none"
         id="path6522" />
      <path
         id="path6526"
         d="m 360.86901,229.07604 h 5.82321 c 2.73156,0 4.74504,1.22158 4.74504,3.59463 0,1.29329 -1.15041,3.37767 -4.02643,3.37767 h -6.54182 v -6.9723 m 0,-14.80926 h 5.24854 c 2.94693,0 4.52834,0.93478 4.52834,3.30677 0,1.29381 -0.93424,3.23506 -3.45043,3.23506 h -5.75125 z m -11.50197,-8.33913 v 38.81913 h 19.84058 c 6.18278,0 9.41784,-1.22184 11.50249,-3.45016 1.36605,-1.51024 2.80406,-4.24154 2.80406,-7.7642 0,-5.46338 -4.02617,-8.19468 -8.1235,-8.98578 4.02537,-0.79084 7.04479,-4.09734 7.04479,-8.41084 0,-1.79705 -0.64717,-4.88844 -2.80326,-6.90139 -2.15662,-2.08439 -4.3135,-3.30676 -9.84858,-3.30676 z m 36.15928,38.81913 v -38.81913 h 30.62447 v 8.91407 h -18.3314 v 5.67876 h 14.8807 v 8.62674 h -14.8807 v 6.32645 h 18.3314 v 9.27311 m 3.73829,0 v -38.81913 h 12.58015 v 29.25815 h 15.95861 v 9.56098"
         inkscape:connector-curvature="0"
         style="fill:#065ef0;stroke-width:0.26458332" />
      <path
         id="path6528"
         d="m 445.98388,211.03172 c 2.22885,0 4.6011,1.72562 4.6011,4.38521 0,2.44395 -1.94098,4.4569 -4.67333,4.4569 -2.51513,0 -4.60058,-2.01268 -4.60058,-4.38494 0,-2.37225 1.94125,-4.45717 4.67281,-4.45717 m -0.0725,-6.03885 c -6.39762,0 -10.92623,5.03238 -10.92623,10.42406 0,5.89465 4.81648,10.49523 10.99847,10.49523 5.17604,0 10.92702,-3.88171 10.92702,-10.49523 2.7e-4,-5.75072 -4.88818,-10.42406 -10.99926,-10.42406 z"
         inkscape:connector-curvature="0"
         style="fill:#065ef0;stroke-width:0.26458332" />
      <path
         transform="matrix(0.26458333,0,0,0.26458333,215.56302,203.07782)"
         style="fill:#065ef0"
         inkscape:connector-curvature="0"
         d="m 913.268,10.771 41.025,146.718 h 41.57 l 20.106,-81.781 21.466,81.781 h 39.939 l 41.027,-146.718 h -36.408 l -21.463,85.314 -22.822,-85.041 -37.225,-0.273 -21.194,85.314 -21.463,-85.314"
         clip-path="none"
         id="path6536" />
    </g>
  </g>
</svg>
