<svg xmlns="http://www.w3.org/2000/svg" width="1000" height="359.914" viewBox="0 0 264.583 95.227"><path fill="#064a93" d="M132.292 0C59.2 0 0 21.282 0 47.615c0 26.324 59.204 47.612 132.292 47.612 73.097 0 132.292-21.289 132.292-47.612C264.584 21.28 205.39 0 132.292 0" style="fill:#00095b;fill-opacity:1;stroke-width:1.00001"/><path d="M132.962 91.051C62.577 91.051 5.52 71.39 5.52 47.135c0-24.259 57.058-43.919 127.442-43.919 70.378 0 127.431 19.66 127.431 43.919 0 24.254-57.055 43.916-127.431 43.916m0-84.03C65.05 7.021 10 24.977 10 47.135S65.048 87.25 132.962 87.25c67.91 0 122.951-17.959 122.951-40.116 0-22.158-55.044-40.114-122.951-40.114" style="fill:#fff;stroke-width:1.00001"/><path d="M99.718 14.153a70 70 0 0 0-5.456.226c-12.155 1.013-23.725 7.79-23.746 18.077-.013 5.218 3.733 9.445 9.537 9.259 6.82-.23 12.419-5.64 15.35-12.46 1.112-2.588-.948-3.663-1.928-2.173a17.3 17.3 0 0 1-6.882 6.061c-3.209 1.556-6.639 1.136-7.679-1.444-1.462-3.64 1.577-9.087 8.512-11.65 10.017-3.672 20.498-1.243 30.583.633.144 0 .682.296.206.54-1.806.976-3.584 1.768-6.354 4.128-1.986 1.684-4.586 3.926-6.597 6.369-1.996 2.407-3.41 4.553-5.283 6.933-.26.344-.582.329-.578.329-4.563.763-9.03 1.274-13.12 4.09-.846.578-1.213 1.604-.7 2.389.46.696 1.515.77 2.247.243 2.541-1.882 5.157-2.768 8.157-2.85.131.008.194.029.231.109.023.045.01.14-.045.21-4.494 6.173-5.62 7.568-9 11.395-1.73 1.967-3.43 3.627-5.33 5.355-7.676 7.061-15.932 6.94-18.894 2.512-1.77-2.657-1.537-5.446-.377-7.76 1.428-2.834 4.314-4.911 6.714-6.124.89-.45 1.147-1.578.255-2.606-.567-.67-1.942-.79-2.966-.604-3.144.575-6.86 2.929-9.055 5.76-2.474 3.179-3.71 7.037-3.294 11.367.745 7.813 7.242 12.326 14.618 12.274 5.87-.045 11.398-1.806 18.05-8.492 6.2-6.236 11.85-15.551 17.14-24.19.166-.275.284-.423 1.088-.522 3.318-.411 8.218-.88 11.358-1.06.698-.037.84-.03 1.12.315.818 1.022 2.046 1.89 3.03 2.418.48.258.709.387 1.086.393.465.01.826-.238 1.06-.5.333-.362.425-.836.245-1.14-.188-.32-2.377-1.522-2.442-2.008-.048-.303.286-.376.286-.376 1.61-.5 3.285-1.53 4.3-3.455.997-1.895 1.158-4.424-.666-5.83-1.6-1.235-4.02-1.04-5.95.675-1.888 1.665-2.512 4.088-2.257 6.21.046.369.026.493-.48.535-2.903.23-5.699.31-8.809.472-.208.015-.274-.12-.153-.264 3.581-6.16 8.928-10.546 14.842-14.867.392-.29.273-.844.257-1.306 10.678 2.297 20.997 6.572 32.075 6.481 4.581-.037 8.967-.727 13.16-3.004 3.686-1.99 5.182-3.833 5.292-5.747.086-1.323-.843-2.159-2.166-1.874-11.193 2.546-21.871 2.518-33.007 1.184-12.72-1.529-24.924-4.676-37.585-4.636m22.343 17.853c.262.014.507.1.705.269.59.499.31 1.744-.286 2.606-.65.95-1.755 1.772-2.762 1.972-.202.037-.377-.05-.46-.492-.165-1.173.222-2.744 1.488-3.851.396-.347.88-.527 1.315-.504m89.855.225-6.825.003c-.505 0-.766.061-1.005.526-.782 1.485-10.32 15.639-12.097 18.388-.298.418-.663.36-.705-.117-.18-1.632-1.604-3.508-3.847-4.406-1.71-.687-3.382-.811-5.119-.583-3.137.417-5.932 2.057-8.39 3.904-3.703 2.789-6.897 6.4-11.022 9.07-2.252 1.453-5.335 2.72-7.398.83-1.867-1.714-1.657-5.522 1.2-8.466.3-.31.662-.051.605.226-.27 1.332.062 2.656 1.083 3.585 1.246 1.105 3.03 1.231 4.556.493 1.802-.883 2.86-2.59 3.17-4.528.477-3.005-1.86-5.656-4.782-5.868-2.375-.165-4.652.653-6.87 2.467-1.113.913-1.746 1.589-2.707 2.943-.235.334-.595.368-.583-.125.111-3.847-1.497-6.012-4.71-6.083-2.492-.058-5.157 1.28-7.233 2.92-2.276 1.81-4.266 4.208-6.4 6.462-.264.278-.496.265-.57-.274-.065-2.55-.712-5.018-1.904-6.771-.421-.61-1.309-.913-2.055-.5-.344.186-1.542.732-2.413 1.427-.433.353-.6.863-.41 1.519 1.15 3.807.896 8.137-.664 11.795-1.433 3.348-4.218 6.37-7.49 7.392-2.156.677-4.398.346-5.785-1.547-1.905-2.612-1.135-7.154 1.703-10.927 2.507-3.32 6.13-5.43 9.748-6.79.426-.161.512-.431.392-.79-.197-.59-.51-1.39-.638-1.757-.331-.873-1.26-1.016-2.394-.893-2.627.303-4.996 1.194-7.337 2.435-6.13 3.25-9.202 9.54-10.55 12.907-.648 1.615-1.203 2.625-1.92 3.519-.966 1.203-2.179 2.297-4.397 4.226-.2.177-.35.546-.182.888.227.465 1.38 2.077 1.706 2.22.361.177.78-.069.948-.189 1.552-1.04 3.409-2.692 4.318-3.812.318-.383.646-.222.815.36.848 2.996 3.07 5.442 6.14 6.465 5.62 1.877 11.45-.84 15.85-5.569 2.796-3.005 3.806-4.938 4.878-6.252 1.816-2.23 5.4-7.215 9.667-10.416 1.565-1.18 3.418-2.08 4.35-1.483.747.48.988 1.595-.212 3.755-4.35 7.867-10.754 17.11-11.928 19.353-.214.389-.028.694.383.694 2.277-.01 4.536-.005 6.603-.005.343-.016.498-.171.67-.412 3.339-5.175 6.482-10.103 9.85-15.196.19-.3.363-.067.37.064.07 1.18.363 2.798 1.07 3.86 1.275 1.962 3.079 2.805 5.081 2.818 1.592.018 2.397-.222 4.114-.857a14.5 14.5 0 0 0 3.38-1.796c.503-.345.59.233.578.322-.772 4.11.182 8.977 4.306 10.996 4.936 2.41 10.358-.977 13.478-4.034.305-.295.634-.264.665.37.066 1.168.598 2.553 1.574 3.523 2.615 2.598 7.89 1.569 13.186-2.49 3.4-2.597 6.957-6.268 10.17-10.155.119-.15.207-.393-.023-.637-.49-.507-1.197-1.087-1.682-1.534-.221-.186-.546-.133-.733.008-3.293 3.1-6.257 6.638-10.543 9.563-1.445.998-3.748 1.804-4.783.418-.403-.538-.356-1.283.04-2.26 1.252-3.086 21.03-32.905 22.057-34.66l.002-.003c.176-.306-.01-.53-.4-.53M184.2 50.872a3.26 3.26 0 0 1 1.445.305c2.436 1.15 1.658 3.944.569 6.137a.6.6 0 0 0-.044.452c.04.228.34.449.634.554.103.038.162.112.045.352-.842 1.785-1.614 2.814-2.67 4.364-.967 1.433-2.06 2.55-3.384 3.626-1.995 1.635-4.765 3.414-7.055 2.218-1.018-.524-1.457-1.933-1.437-3.074.053-3.21 1.49-6.504 4.153-9.742 2.637-3.214 5.5-5.172 7.744-5.192" style="fill:#fff;stroke-width:1.00001"/></svg>