<svg width="232" height="26" viewBox="0 0 232 26" version="1.1" xmlns="http://www.w3.org/2000/svg">
    <g id="Page-1" stroke="none" stroke-width="1" fill="none">
                <g>
                    <polygon fill="#FFFFFF" points="67.7343744 9.2961792 75.2919552 19.0181376 69.8632704 19.0181376 62.9443584 9.934848 62.9443584 19.0181376 58.4027136 19.0181376 58.4027136 0.4967424 62.9443584 0.4967424 62.9443584 8.7639552 69.6503808 0.4967424 75.043584 0.4967424"/>
                    <polygon fill="#FFFFFF" points="81.8915328 15.1861248 90.7264512 15.1861248 90.7264512 19.0181376 77.349888 19.0181376 77.349888 0.4967424 90.300672 0.4967424 90.300672 4.3287552 81.8915328 4.3287552 81.8915328 7.6640256 89.4845952 7.6640256 89.4845952 11.4250752 81.8915328 11.4250752"/>
                    <polygon fill="#FFFFFF" points="92.5714944 0.4967424 92.5714944 4.3287552 98.2130688 4.3287552 98.2130688 19.0181376 102.754714 19.0181376 102.754714 4.3287552 108.360806 4.3287552 108.360806 0.4967424"/>
                    <polygon fill="#FFFFFF" points="92.5714944 0.4967424 92.5714944 4.3287552 98.2130688 4.3287552 98.2130688 19.0181376 102.754714 19.0181376 102.754714 4.3287552 108.360806 4.3287552 108.360806 0.4967424"/>
                    <path d="M10.8928512,11.886336 L16.4634624,19.0181376 L11.2476672,19.0181376 L4.5771264,10.0767744 L4.5771264,19.0181376 L0.0354816,19.0181376 L0.0354816,0.532224 L8.3736576,0.532224 C12.3475968,0.532224 15.1151616,2.9804544 15.1151616,6.5286144 C15.1151616,9.0123264 13.483008,11.2831488 10.8928512,11.886336 Z M10.6089984,6.5286144 C10.6089984,5.144832 9.5090688,4.1868288 7.9478784,4.1868288 L4.612608,4.1868288 L4.612608,8.8704 L7.9478784,8.8704 C9.5445504,8.9413632 10.6089984,7.9478784 10.6089984,6.5286144 Z" fill="#FFFFFF"/>
                    <g transform="translate(16.676352, 0.000000)" >
                        <path d="M10.7509248,4.1513472 C14.0861952,4.1513472 16.7118336,6.7060224 16.7118336,10.2187008 C16.7118336,12.9862656 15.3280512,14.6539008 13.483008,15.8957568 L16.0376832,19.3019904 C19.1955456,17.1376128 21.1825152,14.1571584 21.1825152,10.2187008 C21.1825152,4.3997184 16.5699072,0.177408 10.7509248,0.177408 C4.9319424,0.177408 0.3193344,4.4352 0.3193344,10.2187008 C0.3193344,14.1571584 2.306304,17.1376128 5.4641664,19.3019904 L8.0188416,15.8957568 C6.1737984,14.6539008 4.790016,12.9862656 4.790016,10.2187008 C4.8254976,6.7060224 7.4156544,4.1513472 10.7509248,4.1513472 Z" fill="#FFFFFF"/>
                        <path d="M37.1492352,13.9087872 L39.5265024,17.1376128 C37.787904,18.6633216 35.659008,19.337472 32.997888,19.337472 C27.7820928,19.337472 23.2759296,15.5409408 23.2759296,9.7219584 C23.2759296,4.0449024 27.7466112,0.177408 32.997888,0.177408 C35.5170816,0.177408 37.787904,0.8160768 39.4910208,2.1998592 L37.0073088,5.5706112 C36.013824,4.790016 34.8074496,4.1868288 32.997888,4.1868288 C30.1238784,4.1868288 27.8175744,6.4576512 27.8175744,9.8284032 C27.8175744,13.128192 30.1238784,15.3635328 33.0688512,15.3635328 C34.8784128,15.3280512 36.1202688,14.6893824 37.1492352,13.9087872 Z" fill="#FFFFFF"/>
                    </g>
                </g>
                <polygon fill="#FFFFFF" points="115.776461 0.4967424 118.756915 0.4967424 124.717824 9.1187712 130.714214 0.4967424 133.765632 0.4967424 133.765632 19.0181376 131.139994 19.0181376 131.139994 4.3287552 125.143603 12.950784 124.292045 12.950784 118.402099 4.3287552 118.402099 19.0181376 115.776461 19.0181376"/>
                <g transform="translate(135.894528, 1.064448)" fill="#FFFFFF">
                    <path d="M0.1419264,11.354112 C0.1419264,7.3801728 3.0514176,4.5061632 7.0608384,4.5061632 C11.1412224,4.5061632 13.9797504,7.3801728 13.9797504,11.354112 C13.9797504,15.3280512 11.176704,18.2020608 7.0608384,18.2020608 C3.0514176,18.2020608 0.1419264,15.3635328 0.1419264,11.354112 Z M11.4605568,11.354112 C11.4605568,8.6575104 9.6509952,6.8479488 7.0608384,6.8479488 C4.5061632,6.8479488 2.6966016,8.6575104 2.6966016,11.354112 C2.6966016,14.0507136 4.5416448,15.8602752 7.0608384,15.8602752 C9.6864768,15.8957568 11.4605568,14.015232 11.4605568,11.354112 Z"/>
                    <path d="M23.3823744,4.790016 L23.3823744,7.0608384 L22.353408,7.0608384 C19.8342144,7.0608384 18.7342848,8.8704 18.7342848,11.53152 L18.7342848,17.918208 L16.2860544,17.918208 L16.2860544,4.7545344 L18.7342848,4.7545344 L18.7342848,7.0608384 C19.5858432,5.3577216 20.934144,4.7545344 22.3888896,4.7545344 L23.3823744,4.7545344 L23.3823744,4.790016 L23.3823744,4.790016 Z" />
                    <path d="M27.2498688,12.9153024 L27.2498688,6.9898752 L24.9790464,6.9898752 L24.9790464,4.7545344 L27.2498688,4.7545344 L27.2498688,0.9580032 L29.7335808,0.1419264 L29.7335808,4.7190528 L33.4236672,4.7190528 L33.4236672,6.9543936 L29.7335808,6.9543936 L29.7335808,12.5250048 C29.7335808,14.724864 30.9044736,15.6473856 33.0333696,15.6473856 L33.2817408,15.6473856 L32.8914432,18.0601344 L32.7849984,18.0601344 C29.0594304,18.1665792 27.2498688,16.5344256 27.2498688,12.9153024 Z" />
                    <path d="M48.5033472,4.790016 L48.5033472,16.9602048 C48.5033472,21.28896 45.8777088,23.6307456 41.69088,23.6307456 C38.7104256,23.6307456 36.8299008,22.530816 35.5170816,20.7922176 L37.5395328,19.51488 C38.2846464,20.4374016 39.561984,21.4308864 41.7973248,21.4308864 C44.4584448,21.4308864 46.0196352,19.9051776 46.0196352,17.1376128 L46.0196352,15.5054592 C44.9906688,17.1730944 43.3230336,17.9536896 41.2651008,17.9536896 C37.5750144,17.9536896 34.9138944,15.1861248 34.9138944,11.3186304 C34.9138944,7.451136 37.5040512,4.5771264 41.2651008,4.5771264 C43.3939968,4.5771264 44.9551872,5.4641664 46.0196352,7.0253568 L46.0196352,4.8254976 L48.5033472,4.790016 L48.5033472,4.790016 Z M46.0905984,11.2121856 C46.0905984,8.8349184 44.2810368,6.741504 41.7618432,6.741504 C39.1362048,6.741504 37.433088,8.7284736 37.433088,11.2831488 C37.433088,13.9087872 39.2426496,15.7538304 41.7973248,15.7538304 C44.352,15.7183488 46.0905984,13.7668608 46.0905984,11.2121856 Z"/>
                    <path d="M64.2926592,4.790016 L64.2926592,17.9536896 L61.8089472,17.9536896 L61.8089472,15.6473856 C60.7799808,17.4569472 59.0413824,18.2020608 57.0189312,18.2020608 C53.3288448,18.2020608 50.6677248,15.3635328 50.6677248,11.3895936 C50.6677248,7.3801728 53.3288448,4.5416448 57.0189312,4.5416448 C59.0413824,4.5416448 60.850944,5.3932032 61.8089472,7.0608384 L61.8089472,4.8254976 L64.2926592,4.790016 L64.2926592,4.790016 Z M61.9508736,11.354112 C61.9508736,8.7284736 60.0348672,6.8124672 57.5156736,6.8124672 C54.99648,6.8124672 53.2578816,8.6220288 53.2578816,11.3895936 C53.2578816,14.0861952 54.9609984,15.8957568 57.480192,15.8957568 C60.0348672,15.8957568 61.9508736,13.9442688 61.9508736,11.354112 Z"/>
                    <path d="M80.1174528,4.790016 L80.1174528,16.9602048 C80.1174528,21.28896 77.4918144,23.6307456 73.3049856,23.6307456 C70.3245312,23.6307456 68.4440064,22.530816 67.1311872,20.7922176 L69.1536384,19.51488 C69.898752,20.4374016 71.1760896,21.4308864 73.4114304,21.4308864 C76.0725504,21.4308864 77.6337408,19.9051776 77.6337408,17.1376128 L77.6337408,15.5054592 C76.6047744,17.1730944 74.9371392,17.9536896 72.8792064,17.9536896 C69.18912,17.9536896 66.528,15.1861248 66.528,11.3186304 C66.528,7.451136 69.1181568,4.5771264 72.8792064,4.5771264 C75.0081024,4.5771264 76.5692928,5.4641664 77.6337408,7.0253568 L77.6337408,4.8254976 L80.1174528,4.790016 L80.1174528,4.790016 Z M77.704704,11.2121856 C77.704704,8.8349184 75.8951424,6.741504 73.3759488,6.741504 C70.7503104,6.741504 69.0471936,8.7284736 69.0471936,11.2831488 C69.0471936,13.9087872 70.8567552,15.7538304 73.4114304,15.7538304 C76.0015872,15.7183488 77.704704,13.7668608 77.704704,11.2121856 Z"/>
                    <path d="M95.3390592,12.063744 L84.8719872,12.063744 C85.1203584,14.5119744 86.7170304,16.0376832 89.058816,16.0376832 C90.9038592,16.0376832 92.074752,15.2216064 92.8908288,14.4055296 L94.5939456,15.6828672 C93.5649792,16.9247232 91.897344,18.2020608 89.0233344,18.2020608 C84.978432,18.2020608 82.3882752,15.257088 82.3882752,11.4250752 C82.3882752,7.4866176 85.1913216,4.5771264 88.9523712,4.5771264 C92.7489024,4.5771264 95.3390592,7.3801728 95.3390592,11.7798912 L95.3390592,12.063744 L95.3390592,12.063744 Z M92.7489024,10.2541824 C92.5005312,7.9478784 91.0812672,6.564096 88.9878528,6.564096 C86.9654016,6.564096 85.2268032,7.9123968 84.9074688,10.2541824 L92.7489024,10.2541824 Z"/>
                </g>
    </g>
</svg>