<svg xmlns="http://www.w3.org/2000/svg" viewBox="0 0 1180.5 250"><path fill="#243882" d="M808.1 90.5c1.1-.1 1.9-1 1.8-2.1s-1-1.9-2.1-1.8-1.9 1-1.8 2.1c.1 1 1.1 1.8 2.1 1.8M684.4 27.4c0 3.1 2.5 5.7 5.7 5.7s5.7-2.5 5.7-5.7c0-3.1-2.5-5.7-5.7-5.7-3.1 0-5.7 2.6-5.7 5.7m36 12.2c0 3.1 2.5 5.7 5.7 5.7 3.1 0 5.7-2.5 5.7-5.7 0-3.1-2.5-5.7-5.7-5.7-3.1 0-5.7 2.5-5.7 5.7q0-.15 0 0M585 187.7c0 3.1 2.5 5.7 5.7 5.7 3.1 0 5.7-2.5 5.7-5.7 0-3.1-2.5-5.7-5.7-5.7a5.9 5.9 0 0 0-5.7 5.7m28 23.5c0 3.1 2.5 5.7 5.7 5.7 3.1 0 5.7-2.5 5.7-5.7 0-3.1-2.5-5.7-5.7-5.7-3.1.1-5.7 2.6-5.7 5.7m35.6 11c0 3.1 2.5 5.7 5.7 5.7 3.1 0 5.7-2.5 5.7-5.7 0-3.1-2.5-5.7-5.7-5.7-3.1 0-5.6 2.5-5.7 5.7m36.6-.4c.1 3.1 2.7 5.6 5.8 5.5s5.6-2.7 5.5-5.8-2.6-5.5-5.6-5.5c-3.1 0-5.7 2.5-5.7 5.6zm35.2-11.2c0 3.1 2.6 5.7 5.8 5.6 3.1 0 5.7-2.6 5.6-5.8 0-3.1-2.5-5.6-5.6-5.6s-5.7 2.5-5.7 5.6c0 .1 0 .1-.1.2m28-22.5c0 3.1 2.5 5.7 5.7 5.7 3.1 0 5.7-2.5 5.7-5.7s-2.5-5.7-5.7-5.7c-3.1-.1-5.6 2.5-5.7 5.7q0-.15 0 0M748.1 62c0 3.1 2.6 5.6 5.7 5.6s5.6-2.6 5.6-5.7-2.5-5.6-5.7-5.6c-3.1 0-5.6 2.6-5.6 5.7m-39.8-15c0-4-3.3-7.2-7.3-7.2s-7.2 3.3-7.2 7.3 3.2 7.2 7.2 7.2c4.1 0 7.3-3.3 7.3-7.3m24.3 15c0-4-3.3-7.2-7.3-7.2s-7.2 3.3-7.2 7.3 3.2 7.2 7.2 7.2c4.1-.1 7.3-3.3 7.3-7.3m19 21.3c0-4-3.2-7.3-7.3-7.3-4 0-7.3 3.2-7.3 7.3s3.2 7.3 7.3 7.3c4 0 7.2-3.2 7.3-7.3q0 .15 0 0m-52-81.2c.1-1.1-.7-2-1.7-2.1-1.1-.1-2 .7-2.1 1.8s.7 2 1.8 2.1c1 .1 1.9-.7 2-1.8q0 .15 0 0M748 19.7c.1-1-.7-2-1.7-2.1-1.1 0-1.9.9-1.9 2 0 .9.7 1.7 1.6 1.9 1 .1 2-.7 2-1.8M786.1 47c.1-1.1-.7-2-1.8-2.1-1-.1-2 .7-2.1 1.7-.2 1.1.5 2.1 1.5 2.3 1.1.2 2.1-.5 2.3-1.6.1-.1.1-.2.1-.3m-65.9-25.2c.1-2-1.5-3.8-3.5-3.9s-3.8 1.5-3.9 3.5 1.4 3.7 3.4 3.9 3.8-1.3 4-3.3zm37 18.4c.2-2-1.3-3.8-3.3-4h-.1c-2-.3-3.9 1-4.2 3s1 3.9 3 4.2h.6c2 .2 3.8-1.3 3.9-3.3v-.2m25.2 26.5c-2-.1-3.8 1.5-3.9 3.5s1.5 3.8 3.5 3.9 3.7-1.4 3.9-3.4-1.3-3.8-3.3-4zM672.2 11.6c-2.1 0-3.7 1.6-3.7 3.7s1.6 3.7 3.7 3.7 3.7-1.6 3.7-3.7c0-1.9-1.6-3.6-3.7-3.7q0 .15 0 0m-17.9 10.2c-3.1 0-5.7 2.5-5.7 5.7 0 3.1 2.5 5.7 5.7 5.7 3.1 0 5.7-2.5 5.7-5.7a5.9 5.9 0 0 0-5.7-5.7m-36 12.1c-3.1 0-5.7 2.5-5.7 5.7 0 3.1 2.5 5.7 5.7 5.7 3.1 0 5.7-2.5 5.7-5.7 0-3.1-2.5-5.7-5.7-5.7m-52.6 85.6c-3.1 0-5.7 2.5-5.7 5.7 0 3.1 2.5 5.7 5.7 5.7 3.1 0 5.7-2.5 5.7-5.7 0-3-2.5-5.6-5.7-5.7m7-33.3c-3.1 0-5.7 2.5-5.7 5.7 0 3.1 2.5 5.7 5.7 5.7 3.1 0 5.7-2.5 5.7-5.7.1-3.1-2.4-5.7-5.5-5.8M591 56.3c-3.1 0-5.7 2.5-5.7 5.7 0 3.1 2.5 5.7 5.7 5.7 3.1 0 5.7-2.5 5.7-5.7a5.9 5.9 0 0 0-5.7-5.7m81.2 158.6c4 0 7.3-3.2 7.3-7.2s-3.2-7.3-7.2-7.3-7.3 3.2-7.3 7.2 3.2 7.2 7.2 7.3m0-164.9c4 0 7.3-3.2 7.3-7.2s-3.2-7.3-7.2-7.3-7.3 3.2-7.3 7.2 3.2 7.2 7.2 7.3m-28.8 4.2c4 0 7.3-3.2 7.3-7.2s-3.2-7.3-7.2-7.3-7.3 3.2-7.3 7.2c-.1 4 3.1 7.3 7.2 7.3q-.15 0 0 0M619 69.1c4 0 7.3-3.2 7.3-7.2s-3.2-7.3-7.2-7.3-7.3 3.2-7.3 7.2 3.2 7.3 7.2 7.3m-19.2 21.5c4 .2 7.4-2.9 7.6-6.9s-2.9-7.4-6.9-7.6-7.4 2.9-7.6 6.9v.1c0 4 3.2 7.2 7.2 7.3m-7.9 27c4 0 7.3-3.2 7.3-7.2s-3.2-7.3-7.2-7.3-7.3 3.2-7.3 7.2 3.2 7.2 7.2 7.3M646.9 3.9c1.1-.1 1.9-1 1.8-2.1s-1-1.9-2.1-1.8-1.8 1-1.7 2.1v.1c0 1 .9 1.8 2 1.7q-.15 0 0 0m-48.4 17.6c1.1-.1 1.8-1 1.8-2-.1-1.1-1-1.9-2.1-1.8s-1.8 1-1.8 2c.1 1.1 1 1.8 2.1 1.8m209.6 151.7c1.1 0 1.9-.9 1.9-1.9 0-1.1-.9-1.9-1.9-1.9h-.4c-1.1.1-1.8 1-1.8 2 .1 1.1 1 1.9 2.1 1.8m-23.2 32.2c1.1-.1 1.8-1.1 1.8-2.1-.1-1.1-1-1.9-2.1-1.8s-1.9 1-1.8 2.1 1 1.9 2.1 1.8m-38.6 27.2c1.1-.1 1.8-1 1.8-2 0-1.1-.9-1.9-1.9-2-1.1 0-1.9.9-2 1.9v.4c.1 1.1 1 1.9 2.1 1.7q0 .15 0 0M697.9 250c1.1-.1 1.9-1 1.8-2.1s-1-1.9-2.1-1.8-1.9 1-1.8 2.1 1 1.9 2.1 1.8m-51 0c1.1-.1 1.9-1 1.8-2.1s-1-1.9-2.1-1.8-1.9 1-1.8 2.1 1 1.9 2.1 1.8m-48.4-17.6c1.1-.1 1.8-1 1.8-2-.1-1.1-1-1.9-2.1-1.8s-1.8 1-1.8 2c.1 1.1 1 1.9 2.1 1.8m-38.2-27.3c1.1-.1 1.9-1 1.8-2.1s-1-1.9-2.1-1.8-1.9 1-1.8 2.1 1 1.9 2.1 1.8m-23.9-31.9c1.1 0 1.9-.9 1.9-1.9 0-1.1-.9-1.9-1.9-1.9h-.4c-1.1.2-1.7 1.2-1.5 2.3.2.9.9 1.6 1.9 1.6m24.1-124.7c1.1-.1 1.9-1 1.8-2.1s-1-1.9-2.1-1.8-1.9 1-1.8 2.1 1 1.9 2.1 1.8m67.6-23.7c2-.3 3.4-2.1 3.2-4.1-.3-1.9-1.9-3.3-3.8-3.2-2 .3-3.4 2.1-3.1 4.1.3 1.8 1.8 3.2 3.6 3.2m-37 18.5c1.9-.1 3.4-1.7 3.3-3.6s-1.7-3.4-3.6-3.3-3.4 1.7-3.3 3.6c.1 1.8 1.5 3.2 3.3 3.3zm-32.5 26.9c0 1.9 1.6 3.5 3.5 3.5h.5c2 0 3.7-1.7 3.6-3.7 0-2-1.7-3.7-3.7-3.6h-.4c-2.1.1-3.7 1.8-3.5 3.8m238.3 70c-2 .2-3.5 2-3.4 4 .2 2 2 3.5 4 3.4 2-.2 3.5-2 3.4-4-.2-2.1-2-3.6-4-3.4M782.5 176c-2 .3-3.4 2.1-3.2 4.1.2 1.9 1.9 3.3 3.8 3.2 2-.3 3.4-2.1 3.1-4.1-.3-1.8-1.8-3.2-3.6-3.2m-28.5 30.4c-2 0-3.7 1.7-3.6 3.7 0 2 1.7 3.7 3.7 3.6h.4c2-.1 3.6-1.8 3.5-3.9 0-1.9-1.6-3.5-3.5-3.5h-.5m-37.8 18.6c-2 .1-3.6 1.8-3.5 3.9.1 2 1.8 3.6 3.8 3.5s3.6-1.8 3.5-3.8v-.3c-.1-2-1.8-3.6-3.8-3.5m-44.5 6.2c-2 .1-3.6 1.8-3.5 3.8s1.8 3.6 3.8 3.5h.3c2-.3 3.4-2.1 3.2-4.1-.3-1.9-1.9-3.2-3.8-3.2m-42.7-4.9c-2 .2-3.5 2-3.3 4s2 3.5 4 3.3 3.5-1.9 3.4-3.9-1.8-3.6-3.9-3.5c-.1.1-.1.1-.2.1m-38.5-19.4c-2 .1-3.6 1.8-3.5 3.8s1.8 3.6 3.8 3.5h.3c2-.3 3.4-2.1 3.2-4.1-.3-1.9-1.9-3.3-3.8-3.2m-28.7-30.4c-2 .3-3.4 2.1-3.2 4.1.2 1.9 1.9 3.3 3.8 3.2 2-.3 3.4-2.1 3.1-4.1-.3-1.8-1.8-3.2-3.6-3.2m-15.9-70.5c-2 .3-3.4 2.1-3.2 4.1.2 1.9 1.9 3.3 3.8 3.2 2-.3 3.4-2.1 3.1-4.1-.3-1.8-1.8-3.2-3.6-3.2m104.7 97.2c0-4-3.2-7.2-7.2-7.2s-7.2 3.2-7.2 7.2 3.2 7.2 7.2 7.2c3.9 0 7.2-3.2 7.2-7.2m49.8-7.3c-4 0-7.3 3.2-7.3 7.2s3.2 7.3 7.2 7.3 7.3-3.2 7.3-7.2c.1-4-3.1-7.2-7.2-7.3q.15.15 0 0m24.8-14.3c-4-.1-7.3 3.1-7.4 7.1s3.1 7.3 7.1 7.4 7.3-3.1 7.4-7.1v-.1c.1-4-3.2-7.3-7.2-7.4h-.2m26.3-14.5c0-4-3.3-7.2-7.3-7.2s-7.2 3.3-7.2 7.3 3.2 7.2 7.2 7.2c4-.1 7.3-3.3 7.3-7.3m-132.3 14.2c-4 0-7.3 3.2-7.3 7.2s3.2 7.3 7.2 7.3 7.3-3.2 7.3-7.2-3.2-7.2-7.2-7.3m-19.1-21.4c-4 0-7.3 3.2-7.3 7.2s3.2 7.3 7.2 7.3 7.3-3.2 7.3-7.2v-.1c0-4-3.3-7.3-7.2-7.2M890 97.2h44.8v59.7h15.7V97.2h40.8l3.8-10.4H893.8zM527.1 86.8h-15.7v70.1h71.7l3.9-10.4h-59.9zm146.2 0 37.9 69.4H728L690.1 87zM616 156.2h16.8L670.7 87h-16.8zm226.1-17.3-66-51.8h-15.8v69.2H776v-52.1l66 52.1h15.7V87H842zm317.9-22.5h-48.2c-4.8.4-9.1-3.1-9.5-7.9v-2.7c.1-4.8 4-8.5 8.7-8.5h65.7l3.8-10.4H1107c-13.2 0-20 8.9-20.1 17.8v4.6c0 9 6.9 18.3 20.5 18.3h48.2c4.8-.4 9.1 3.1 9.5 7.9v2.6c-.1 4.8-4 8.6-8.8 8.5h-65.6l-3.8 10.4h73.5c13.2 0 20-8.9 20.1-17.8v-4.6c0-9-6.9-18.3-20.5-18.3m-1086.8 0H24.9c-4.8.4-9.1-3.1-9.5-7.9v-2.6c.1-4.8 4-8.5 8.7-8.5h65.7l4-10.4H20.1C6.9 87.2.1 96 0 104.9v4.6c0 9 6.9 18.3 20.5 18.3h48.2c4.8-.4 9.1 3.1 9.5 7.9v2.6c-.1 4.8-4 8.6-8.8 8.5H3.8L0 157.1h73.5c13.2 0 20-8.9 20.1-17.8v-4.8c0-9-6.9-18.3-20.5-18.3m955.2 40h15.7V87h-15.7zm-900.4-59h44.7v59.7h15.7V97.2h40.8l3.8-10.4H131.7zm215.2 0 3.8-10.4h-79.6v70.1h75.9l3.8-10.4h-63.9v-19.7h44.7l3.8-10.2H283V97.2zm66.9 49.4h59.9L466 157h-71.7V87H410z"/></svg>