<svg xmlns="http://www.w3.org/2000/svg" width="188" height="119" viewBox="0 0 188 119"><g fill="none" fill-rule="evenodd"><path fill="#fff" d="M93.587 34.201 113.724 0h56.586v36.239h-8.8l25.576.071v40.082H161.51v1.713h9.349v35.139h-62.434V94.46l-14.864 24.526L78.66 94.558v18.686H16.225V78.105h9.351v-1.713H0v-40.09h25.576l-8.8-.063V0h56.577z"/><path fill="#f8e618" d="m73.47 80.826-4.366-7.154h-2.511l-.003 7.154zm40.037 0h6.99v-7.154h-2.653zm-85.21-41.803v-5.504h-8.8V2.721h52.304l21.478 36.302h.627L115.28 2.721h52.31v30.798h-8.801v5.505h25.577v34.648h-25.577v7.154h9.352v29.697h-56.993V84.722l-17.594 29.025-17.615-28.872v25.648H18.946V80.826h9.351v-7.154H2.721V39.023z"/><path fill="#121849" d="m62.89 56.358 30.653 50.247 30.663-50.591v28.523h-9.35v22.277h49.572V84.537h-9.35V29.808h8.801V6.432H117.4L93.601 46.854 69.685 6.432H23.207v23.376h8.801v54.729h-9.351v22.277h49.572V84.537h-9.351z"/><path fill="#f8e618" d="M184.365 39.023v34.648H2.721V39.023z"/><path fill="#121849" d="M6.431 42.734h174.224V69.96H6.431z"/><path fill="#f8e618" d="M29.822 50.436h3.343l2.65 6.981 2.806-6.981h3.378l1.975 13.062h-3.395l-.953-7.519h-.035l-3.135 7.519h-1.351l-2.997-7.519h-.035l-1.091 7.519h-3.378zm24.845 13.062h-3.396V50.436h3.396zm17.207-8.679c-.693-.935-1.819-1.438-2.98-1.438-2.078 0-3.481 1.594-3.481 3.621 0 2.061 1.42 3.55 3.533 3.55 1.109 0 2.217-.537 2.928-1.386v4.071c-1.126.346-1.94.605-2.997.605-1.819 0-3.552-.691-4.903-1.922-1.438-1.299-2.096-2.997-2.096-4.937a6.84 6.84 0 0 1 1.923-4.782c1.282-1.316 3.135-2.113 4.971-2.113 1.092 0 2.097.242 3.102.658zm15.838.659v-5.042h3.396v13.062h-3.396v-5.353H82.81v5.353h-3.395V50.436h3.395v5.042zm14.166 8.02h-3.395V50.436h3.395zm20.566-7.293c-.034 1.905-.173 3.534-1.334 5.162-1.281 1.785-3.204 2.564-5.387 2.564-4.104 0-6.964-2.789-6.964-6.895 0-4.245 2.876-7.034 7.085-7.034 2.686 0 4.764 1.212 5.89 3.655l-3.222 1.351c-.468-1.247-1.455-2.079-2.823-2.079-2.235 0-3.396 2.131-3.396 4.123 0 2.027 1.212 4.089 3.447 4.089 1.472 0 2.598-.764 2.736-2.27h-2.771v-2.668h6.739zm9.464 5.023-.901 2.27h-3.603l5.023-13.062h3.707l4.919 13.062h-3.619l-.85-2.27zm2.373-6.755h-.035l-1.402 4.157h2.823zm12.201-4.037h3.396l6.219 7.986h.034v-7.986h3.395v13.062h-3.395l-6.219-8.004h-.034v8.004h-3.396z"/></g></svg>