<svg xmlns="http://www.w3.org/2000/svg" viewBox="0 0 271.7 51.098"><path fill="#404e66" d="M94.334 50.988c-.05-.081-15.271-49.181-15.729-50.74-.073-.247.144-.257 4.434-.216 4.076.04 4.558.07 5.013.312.65.347 1.128.786 1.376 1.262.385.74 9.015 31.436 9.453 33.624.242 1.207.482 2.195.534 2.195.051 0 .175-.394.275-.875.1-.482.342-1.437.54-2.123.637-2.218 10.45-32.032 10.713-32.552.303-.598.883-1.161 1.577-1.53.71-.379 5.013-.401 5.688-.03.594.325 1.198.951 1.505 1.558.403.797 10.476 31.668 11.013 33.751.339 1.315.504 1.763.558 1.511.042-.197.24-1.168.441-2.157.529-2.606 9.24-33.202 9.596-33.701.16-.225.595-.587.965-.805l.675-.397 4.3-.044c3.77-.038 4.29-.017 4.218.172-.13.337-15.786 50.745-15.786 50.824 0 .039-1.94.07-4.313.07h-4.312l-.637-1.979c-2.532-7.87-11.054-34.632-11.193-35.154l-.173-.647-.199.72c-.109.395-2.834 8.896-6.056 18.89l-5.858 18.171h-4.275c-2.35 0-4.305-.05-4.343-.11m50.615-.501c.106-.258 3.258-8.257 7.005-17.775l6.812-17.307h6.794l6.907 17.648c3.8 9.706 6.93 17.705 6.956 17.775s-1.242.126-2.85.126c-3.204 0-3.454-.055-4.078-.9-.19-.257-.95-2.136-1.688-4.175l-1.343-3.707-14.683.075-1.264 3.454c-1.595 4.36-1.655 4.49-2.27 4.907-.497.338-.579.346-3.5.346h-2.99zm22.696-13.035c0-.065-1.095-3.093-2.433-6.73-1.338-3.635-2.584-7.111-2.77-7.724-.32-1.056-.554-1.42-.555-.865 0 .346-1.033 3.313-3.346 9.607-1.076 2.93-2 5.439-2.055 5.578-.092.237.228.251 5.53.251 3.096 0 5.629-.053 5.629-.117m20.438 6.618v-6.885l-12.932-21.708 3.048-.043c3.322-.048 3.86.031 4.44.651.42.447 6.76 11.973 8.053 14.638.816 1.682.836 1.709.989 1.296.52-1.407 7.213-14.035 8.248-15.563.171-.253.548-.593.837-.756.486-.273.765-.295 3.709-.295 1.75 0 3.182.025 3.182.055s-2.914 4.95-6.476 10.93l-6.477 10.872v13.692h-6.62zm23.316-10.89V15.405h2.092c1.444 0 2.237.06 2.563.197.367.153 2.589 2.902 10.005 12.378 5.243 6.7 9.546 12.18 9.562 12.18s.013-5.57-.008-12.377l-.037-12.378h5.76v35.55h-2.166c-2.383 0-2.623-.063-3.39-.887-.246-.264-4.417-5.565-9.27-11.778s-8.957-11.443-9.124-11.62l-.302-.32.04 12.303.038 12.303H211.4zm37.853 0V15.405h22.453v5.325h-15.832v9.787h12.522V35.7h-12.522v9.93h15.832v5.326h-22.453zm-217.85 15.7c-.043-.11-.236-.242-.429-.29-.193-.049-.523-.282-.734-.518a2.2 2.2 0 0 0-.917-.574c-.338-.09-.562-.249-.61-.43-.06-.23-.197-.287-.68-.287-.56 0-.602-.026-.542-.34.104-.54-.256-.846-1.393-1.19-.317-.095-.45-.242-.517-.571-.139-.681-.276-.839-.482-.557-.229.314-.893.233-.838-.102.024-.141-.086-.281-.266-.338-.188-.06-.437-.393-.647-.87-.267-.602-.468-.836-.916-1.065-.523-.267-.84-.293-3.58-.293-1.652 0-3.986.043-5.186.095-1.95.084-2.182.121-2.182.347 0 .339-.922.406-6.26.455l-4.175.039-.18-10.003C.77 26.886.522 17.796.32 12.187S-.025 1.965.004 1.935c.08-.08 16.907-.708 34.651-1.294 18.09-.596 34.53-.826 34.321-.478-.12.202-6.629 8.737-6.826 8.951-.058.063-2.269.763-4.913 1.555-3.772 1.13-4.962 1.544-5.527 1.926-1.059.716-2.944 1.354-4.471 1.514-.962.1-1.827.324-3.289.854-1.091.394-2.09.798-2.221.896-1.206.906-2.325 2.622-3.175 4.87-.344.91-.931 2.18-1.306 2.82l-.68 1.166-.515 7.087 1.105 5.911-2.386 9.786.23.674c.125.37.229.726.229.792 0 .065-.844.118-1.876.118-1.481 0-1.892-.043-1.953-.203M17.28 26.02c1.713-5.324 3.154-9.825 3.202-10.003.097-.358.356-.444.356-.117 0 .213 5.934 18.892 6.188 19.479.14.322.176.327 2.258.288l2.115-.04 3.996-12.882c2.198-7.085 4.038-13.064 4.089-13.288l.092-.406-2.24.046c-2.073.043-2.265.07-2.553.357-.232.233-.92 2.455-2.723 8.806-1.327 4.672-2.494 8.952-2.594 9.512s-.234 1.018-.298 1.018-.184-.276-.268-.612c-.083-.337-1.446-4.595-3.027-9.463-3.369-10.37-2.992-9.644-5.001-9.643-2.174 0-1.726-.816-4.99 9.1-1.547 4.694-2.928 9.008-3.07 9.585s-.318 1.048-.393 1.047c-.075 0-.28-.668-.455-1.483-.176-.815-1.353-5.107-2.617-9.537-2.014-7.061-2.344-8.095-2.68-8.384-.363-.313-.493-.329-2.692-.329h-2.31l.084.34c.085.337 7.95 25.765 8.075 26.107.05.133.625.18 2.204.18h2.137zm31.701 17.157c-3.835-.603-6.512-2.993-7.729-6.902-.294-.944-.336-1.37-.334-3.383.002-2.574.173-3.454.995-5.127 1.264-2.569 3.438-4.339 6.271-5.106 1.276-.345 4.182-.351 5.453-.011 1.686.45 4.196 1.913 4.188 2.44-.002.097-.343.63-.758 1.184-.949 1.266-1.173 1.311-2.503.51-1.325-.8-1.883-.943-3.645-.936-1.218.005-1.669.068-2.324.328-2.167.86-3.499 3.057-3.67 6.05-.143 2.48.482 4.431 1.892 5.909 1.143 1.198 2.158 1.635 3.986 1.713 1.748.075 2.99-.264 4.113-1.121 1.097-.838 1.402-.795 2.396.336.442.504.803.983.803 1.065 0 .291-1.56 1.57-2.55 2.09-.553.291-1.42.627-1.926.748-1.174.279-3.548.387-4.658.213m110.61-30.44c-2.14-.6-3.576-2.388-3.927-4.884-.378-2.696.802-5.403 2.8-6.425 1.86-.95 4.23-.924 5.921.067.848.497 1.024.723.743.956-.182.151-.408.087-1.32-.376-1.03-.522-1.184-.559-2.353-.559-1.146 0-1.335.043-2.238.504a4.62 4.62 0 0 0-2.329 2.662c-.387 1.103-.345 3.489.08 4.555.435 1.088 1.293 2.032 2.3 2.526.706.347.994.404 2.045.402 1.406-.002 2.008-.178 3.04-.887.686-.472.752-.49.971-.267s.204.266-.197.603c-.237.2-.832.556-1.32.79-1.12.538-2.969.684-4.216.334zm53.444.072c-.975-.193-1.973-.788-2.753-1.641-1.019-1.115-1.36-2.058-1.44-3.985-.097-2.362.426-3.794 1.858-5.081 1.079-.97 2.032-1.29 3.867-1.296 1.634-.006 2.365.212 3.424 1.02.44.336.467.395.267.595s-.332.166-1.332-.342c-1.038-.527-1.19-.563-2.346-.559-1.451.005-2.494.4-3.37 1.277-2.233 2.232-1.963 6.793.507 8.582 1.654 1.198 4.235 1.094 5.986-.242.444-.339.51-.352.715-.146.284.284.136.485-.805 1.089-1.193.765-2.966 1.048-4.578.729m8.35 0c-.946-.29-1.826-1.036-2.28-1.928-.399-.78-.435-.971-.425-2.23.012-1.576.2-2.132 1.036-3.06.754-.837 1.578-1.17 2.863-1.156 1.771.018 3.02.784 3.663 2.245.418.948.458 3.014.076 3.895-.636 1.472-1.806 2.258-3.465 2.33-.56.024-1.22-.019-1.469-.095m2.445-.603c1.256-.377 2.107-1.772 2.107-3.456 0-1.261-.248-2.04-.88-2.758-1.492-1.694-4.268-1.34-5.348.683-.266.497-.32.829-.32 1.965 0 1.541.218 2.167 1.02 2.93.809.77 2.144 1.018 3.421.636m5.49.479a3.7 3.7 0 0 1-.966-.683c-.722-.769-.833-1.386-.833-4.603 0-2.792.013-2.933.275-2.933.26 0 .278.16.326 2.987.046 2.752.075 3.033.369 3.586.419.788 1.061 1.23 1.91 1.31.908.088 1.616-.164 2.142-.763.637-.725.733-1.296.734-4.35 0-2.674.01-2.77.289-2.77s.287.096.287 2.898c0 3.18-.088 3.703-.765 4.525-.842 1.02-2.518 1.375-3.768.796m31.159.138c-.988-.3-1.899-1.07-2.367-1.999-.615-1.219-.546-3.404.145-4.584 1.57-2.683 5.717-2.457 7.032.384.452.976.432 3.258-.037 4.21-.43.875-1.327 1.64-2.238 1.911-.757.225-1.934.262-2.535.079m2.318-.605c.807-.27 1.38-.795 1.797-1.647.728-1.489.45-3.602-.62-4.699-1.344-1.376-3.806-1.212-4.922.328-1.1 1.517-.918 4.124.371 5.347.819.776 2.225 1.056 3.374.671m-96.877-3.58V4.465h.72v3.886h5.181V6.408c0-1.847.014-1.943.288-1.943.281 0 .288.096.288 4.174s-.007 4.174-.288 4.174c-.274 0-.288-.096-.288-2.015V8.783h-5.181v4.03h-.72zm7.053 4.076c0-.092 1.293-3.286 3.266-8.07.041-.099.215-.18.387-.18.274 0 .513.488 1.925 3.922 2.036 4.952 1.873 4.461 1.464 4.403-.279-.04-.428-.273-.836-1.308l-.498-1.26h-4.077l-.497 1.26c-.396 1-.563 1.268-.816 1.305-.175.025-.319-.007-.319-.072m5.469-2.965c0-.022-.409-1.059-.908-2.304l-.908-2.263-.893 2.196c-.49 1.207-.892 2.244-.891 2.303 0 .06.811.108 1.8.108.99 0 1.8-.018 1.8-.04m2.447-1.11V4.464l1.475.001c1.768.001 2.479.175 3.003.737.725.776.711 2.081-.03 2.926-.376.428-.66.593-1.47.855-.214.07-.014.386 1.188 1.877.796.987 1.447 1.83 1.447 1.873s-.149.079-.33.079c-.252 0-.682-.446-1.807-1.871l-1.477-1.871h-1.424v1.87c0 1.776-.014 1.872-.288 1.872-.28 0-.287-.096-.287-4.174m2.8-.16c.312-.087.782-.372 1.043-.633.397-.397.474-.58.474-1.125 0-1.254-.863-1.823-2.77-1.824l-.972-.001v3.742h.828c.455-.001 1.083-.073 1.396-.16zm4.972.447V5.041h-1.512c-1.415 0-1.51-.018-1.51-.288 0-.28.095-.288 3.31-.288s3.31.008 3.31.288c0 .27-.096.288-1.511.288h-1.511v3.886c0 3.79-.007 3.886-.288 3.886s-.288-.096-.288-3.886zm4.03-.288V4.465h2.518c2.143 0 2.52.032 2.52.216 0 .183-.345.216-2.232.216h-2.23v3.454h1.87c1.55 0 1.872.037 1.872.212 0 .173-.335.219-1.836.252l-1.835.04v3.454l2.195.04c1.82.033 2.195.076 2.195.252 0 .179-.396.212-2.519.212h-2.518zm5.9 0V4.465l1.62.003c1.284.002 1.745.06 2.228.28 1.838.834 1.47 3.727-.525 4.126-.244.049-.444.141-.444.205 0 .065.594.85 1.319 1.746.725.895 1.381 1.709 1.457 1.808.102.133.042.18-.23.18-.297 0-.63-.334-1.762-1.763-.768-.97-1.486-1.816-1.595-1.88-.11-.063-.475-.096-.81-.071l-.61.044-.04 1.835c-.038 1.716-.059 1.835-.324 1.835-.276 0-.283-.117-.283-4.174m3.44-.352c.683-.353 1.052-1.026.975-1.78-.117-1.149-1.043-1.667-2.831-1.582l-.936.044-.04 1.646c-.023.906-.006 1.74.038 1.856.11.283 2.15.15 2.793-.183zm33.406.352c0-3.318.038-4.174.186-4.174.103 0 1.414 1.636 2.915 3.634l2.728 3.635.039-3.635c.032-3.098.07-3.634.252-3.634.183 0 .213.581.213 4.174 0 3.61-.03 4.174-.215 4.174-.119 0-1.43-1.62-2.915-3.6l-2.7-3.6-.038 3.6c-.032 3.068-.07 3.6-.252 3.6-.183 0-.213-.581-.213-4.174m9.787.288V5.041h-1.511c-1.42 0-1.511-.018-1.511-.29 0-.285.073-.29 3.33-.252l3.332.038 1.21 1.943c1.541 2.477 1.488 2.4 1.566 2.231.036-.08.631-1.05 1.323-2.159.977-1.566 1.333-2.026 1.6-2.063.456-.065.46-.072-1.263 2.635l-1.455 2.287v1.701c0 1.605-.016 1.701-.288 1.701s-.288-.096-.288-1.672V9.469l-2.806-4.425-2.663-.004v3.887c0 3.79-.007 3.886-.288 3.886s-.288-.096-.288-3.886m21.445-.288V4.465h2.519c2.123 0 2.519.034 2.519.212 0 .176-.375.22-2.195.252l-2.195.04-.081 3.526h1.948c1.618 0 1.947.036 1.947.212 0 .174-.343.219-1.907.252l-1.907.04-.04 1.907c-.038 1.788-.058 1.907-.324 1.907-.276 0-.284-.116-.284-4.174"/></svg>